<?xml version="1.0" encoding="iso-8859-1"?>
<!-- Generator: Adobe Illustrator 19.0.0, SVG Export Plug-In . SVG Version: 6.00 Build 0)  -->
<svg version="1.1" id="Capa_1" xmlns="http://www.w3.org/2000/svg" xmlns:xlink="http://www.w3.org/1999/xlink" x="0px" y="0px"
	 viewBox="0 0 512 512" style="enable-background:new 0 0 512 512;" xml:space="preserve">
<path style="fill:#1C82C8;" d="M512,256c0,3.156-0.052,6.301-0.178,9.435c-0.491,13.667-2.058,27.063-4.618,40.103
	c-2.069,10.585-4.796,20.929-8.129,30.992c-1.588,4.817-3.323,9.561-5.193,14.242C456.213,445.241,363.907,512,256,512
	C114.615,512,0,397.385,0,256c0-2.915,0.052-5.82,0.146-8.714c0.136-4.065,0.366-8.098,0.69-12.1
	c0.24-3.009,0.533-5.998,0.878-8.965c2.612-22.518,8.14-44.136,16.196-64.481C55.453,66.999,147.895,0,256,0
	C397.385,0,512,114.615,512,256z"/>
<g>
	<polygon style="fill:#F0EFEB;" points="24.719,208.403 43.73,208.403 34.225,184.208 	"/>
	<path style="fill:#F0EFEB;" d="M445.544,161.74v10.376l-5.183-10.376h-40.615v10.376l-5.183-10.376h-55.306
		c-9.509,0-17.283,1.735-24.2,5.183v-5.183h-38.881v5.183c-4.326-3.448-9.509-5.183-16.415-5.183H120.633l-9.498,21.608
		l-9.509-21.608H57.553v10.376L52.37,161.74H17.91c-8.057,20.344-13.584,41.963-16.196,64.48l22.141-52.381h21.598l24.2,57.898
		V173.84h23.333l19.007,41.472l17.283-41.472h24.2v60.489h-14.691v-47.532l-20.741,47.532h-12.957l-20.741-47.532v47.532H54.962
		l-6.05-12.967H19.54l-5.193,13.824H0.836c-0.324,4.002-0.554,8.035-0.69,12.1h21.985l5.183-13.824h12.1l5.183,13.824H94.71V236.92
		l4.326,10.365h25.057l4.326-10.365v10.365H248.53V224.82h1.724c1.724,0,1.724,0,1.724,2.591v19.017h62.224v-5.193
		c5.183,2.591,12.957,5.193,23.333,5.193h25.913l5.193-13.834h12.089l5.193,13.834h50.113v-12.967l7.774,12.967h40.615V161.74
		H445.544L445.544,161.74z M212.229,186.796h-33.698v11.233h32.841v12.1h-32.841v12.1h33.698v12.957H163.84V173.84h48.389V186.796z
		 M279.636,235.186h-14.691v-7.774c0-3.459,0-8.641-2.591-12.1c-2.591-2.591-5.183-2.591-10.376-2.591H236.43v22.465h-14.691V173.84
		h32.831c7.785,0,12.967,0,17.283,2.591c4.326,2.591,6.917,6.917,6.917,13.824c0,9.509-6.05,14.691-10.365,16.415
		c4.315,0.867,6.907,3.459,8.641,5.193c1.724,3.448,2.591,6.05,2.591,11.233L279.636,235.186L279.636,235.186z M302.968,234.329
		h-14.691v-61.356h14.691V234.329z M471.468,234.329h-19.017l-27.648-45.798v45.798H395.42l-5.183-12.967h-30.239l-5.183,13.824
		H338.39c-6.907,0-15.548-1.724-20.741-6.907c-5.183-5.183-7.774-12.1-7.774-23.333c0-8.641,1.735-17.283,7.774-24.2
		c4.326-5.183,12.1-6.907,21.608-6.907h13.824v12.957h-13.824c-5.183,0-7.774,0.867-11.233,3.459
		c-2.591,2.591-4.326,7.774-4.326,13.824c0,6.917,0.867,11.233,4.326,14.691c2.591,2.591,6.05,3.459,10.365,3.459h6.05
		l19.874-47.522h21.608l24.189,57.887v-57.887h21.608l25.057,42.339v-42.339h14.691v59.622L471.468,234.329L471.468,234.329z"/>
	<polygon style="fill:#F0EFEB;" points="125.82,289.63 125.82,300.864 157.793,300.864 157.793,312.961 125.82,312.961 
		125.82,325.922 161.25,325.922 177.667,307.777 162.114,289.63 	"/>
	<path style="fill:#F0EFEB;" d="M482.701,290.492c-2.591,0-4.326,0-6.05,0.867s-1.724,2.591-1.724,4.315
		c0,2.591,0.857,3.459,3.448,4.326c1.735,0.867,3.459,0.867,5.193,0.867h7.774c7.367,0,12.413,1.546,15.862,4.671
		c2.56-13.04,4.127-26.436,4.618-40.103h-29.989c-7.774,0-13.824,1.724-18.139,5.183v-5.183h-39.758
		c-6.05,0-13.824,1.724-17.283,5.183v-5.183h-69.987v5.183c-5.183-4.315-14.691-5.183-19.017-5.183h-46.655v5.183
		c-4.326-4.315-14.691-5.183-19.874-5.183h-51.848l-12.1,12.957l-11.233-12.957H98.168v84.679h76.048l12.089-12.957l11.233,12.957
		h46.665V330.24h6.05c6.05,0,13.824,0,19.874-2.591v23.333h38.881v-22.465h1.735c2.591,0,2.591,0,2.591,2.591v19.874h117.52
		c7.774,0,15.559-1.724,19.874-5.183v5.183h37.157c2.017,0,4.033-0.063,5.998-0.209c1.87-4.681,3.605-9.425,5.193-14.242
		c-2.884,0.94-6.332,1.494-10.324,1.494h-27.658v-12.967h27.658c2.591,0,4.315,0,6.05-1.724c0.857-0.867,1.724-2.591,1.724-4.326
		c0-1.724-0.867-3.459-1.724-4.315c-0.867-0.867-2.591-1.735-5.193-1.735c-13.824-0.857-30.239,0-30.239-19.007
		c0-8.641,5.183-18.15,20.741-18.15h28.515v14.691H482.701L482.701,290.492z M250.253,318.151H232.97v20.731h-27.648l-17.283-19.874
		l-18.15,19.874h-57.031v-61.346h57.898l17.283,19.874l18.139-19.874h45.798c11.233,0,24.2,3.459,24.2,19.874
		C275.31,314.692,263.21,318.151,250.253,318.151z M336.666,314.692c1.724,2.591,2.591,6.05,2.591,11.233v12.1h-14.691v-7.785
		c0-3.448,0-9.498-2.591-12.089c-1.724-2.602-5.183-2.602-10.365-2.602h-15.559v22.476H281.36v-61.356h32.841
		c6.907,0,12.957,0,17.283,2.591c4.315,2.591,7.774,6.917,7.774,13.824c0,9.509-6.05,14.691-10.365,16.426
		C333.208,311.233,335.799,312.957,336.666,314.692z M396.288,289.625H362.59v11.243h32.831v12.089H362.59v12.1h33.698v12.967
		h-48.389v-61.356h48.389V289.625z M432.577,338.024h-27.648v-12.967h27.648c2.591,0,4.326,0,6.05-1.724
		c0.867-0.867,1.735-2.591,1.735-4.326c0-1.724-0.867-3.459-1.735-4.315c-0.857-0.867-2.591-1.735-5.183-1.735
		c-13.824-0.857-30.239,0-30.239-19.007c0-8.641,5.183-18.15,20.731-18.15h28.515v14.691H425.67c-2.591,0-4.326,0-6.05,0.867
		c-1.735,0.867-1.735,2.591-1.735,4.315c0,2.591,1.735,3.459,3.459,4.326c1.735,0.867,3.459,0.867,5.183,0.867h7.784
		c7.774,0,12.957,1.724,16.415,5.183c2.591,2.591,4.326,6.907,4.326,12.957C455.053,331.975,447.269,338.024,432.577,338.024z"/>
	<path style="fill:#F0EFEB;" d="M260.623,199.763c1.728-0.864,2.592-3.457,2.592-6.049c0.864-3.457-0.864-5.185-2.592-6.049
		s-4.321-0.864-6.913-0.864h-17.283v13.826h17.283C256.302,200.627,258.894,200.627,260.623,199.763z"/>
	<polygon style="fill:#F0EFEB;" points="375.55,184.208 365.18,208.403 385.055,208.403 	"/>
	<polygon style="fill:#F0EFEB;" points="218.281,332.836 218.281,283.581 195.814,307.777 	"/>
	<path style="fill:#F0EFEB;" d="M251.117,289.63H232.97v15.554h19.011c5.185,0,8.641-2.592,8.641-7.777
		C259.758,292.222,256.302,289.63,251.117,289.63z"/>
	<path style="fill:#F0EFEB;" d="M321.111,291.358c-1.728-0.864-4.321-0.864-6.913-0.864h-17.283v13.826h17.283
		c2.592,0,5.185,0,6.913-0.864s2.592-3.457,2.592-6.049C324.567,293.951,322.839,292.222,321.111,291.358z"/>
</g>
<g>
</g>
<g>
</g>
<g>
</g>
<g>
</g>
<g>
</g>
<g>
</g>
<g>
</g>
<g>
</g>
<g>
</g>
<g>
</g>
<g>
</g>
<g>
</g>
<g>
</g>
<g>
</g>
<g>
</g>
</svg>
