
<svg width="512" height="238" xmlns="http://www.w3.org/2000/svg" preserveAspectRatio="xMidYMid" version="1.1">
 <g>
  <title>Layer 1</title>
  <g stroke="null">
   <path stroke="null" fill="#000000" d="m273.79662,112.52293a50.33083,50.33083 0 0 1 5.60138,0.2991a15.0639,15.0639 0 0 1 -7.0697,-12.80704l0,-43.01641c0,-1.79462 0,-3.31732 -1.90338,-3.31732l-11.71939,0a2.93664,2.93664 0 0 0 -2.71912,3.31732l0,43.83215a29.91027,29.91027 0 0 0 3.42609,13.59558a53.26748,53.26748 0 0 1 14.38412,-1.90338zm110.01542,0l0,-45.24609l9.97915,0a22.32394,22.32394 0 0 1 22.4599,23.30282a21.91607,21.91607 0 0 1 -22.07922,22.86776a76.73345,76.73345 0 0 1 21.97046,9.02746a35.3485,35.3485 0 0 0 17.13043,-31.43298a37.60537,37.60537 0 0 0 -38.20358,-37.36065l-22.24237,0c-1.71304,0 -5.43823,1.57709 -5.43823,3.31732l0,57.10143a66.53676,66.53676 0 0 1 15.44458,-1.5227c0.65259,-0.05438 -1.74023,-0.05438 0.97888,-0.05438zm-65.25878,-11.6922l0,-43.83215c0,-1.74023 0,-3.31732 -1.74023,-3.31732l-11.71939,0a2.99103,2.99103 0 0 0 -2.71912,3.31732l0,43.20675a14.11221,14.11221 0 0 1 -12.23602,14.52008c7.34161,2.28406 13.26928,5.95486 19.76797,8.70117c6.22677,-5.46542 8.64679,-13.62277 8.64679,-22.59585zm16.31469,25.96756c8.15735,-0.67978 13.59558,-2.71912 16.31469,-4.94879l0,-64.17113c0,-1.79462 -0.24472,-3.9971 -2.03934,-3.9971l-12.6167,0c-1.79462,0 -1.65866,2.20248 -1.65866,3.9971l0,69.11992zm-201.21456,-3.39889l0,-9.05466a3.48047,3.48047 0 0 0 -3.18137,-3.56204l-26.72891,0l0,-53.78411a3.34451,3.34451 0 0 0 -3.15417,-3.31732l-9.70724,0a3.50766,3.50766 0 0 0 -3.45328,3.31732l0,61.28887a52.37017,52.37017 0 0 0 27.19116,8.78274a46.68722,46.68722 0 0 0 19.03381,-3.67081zm24.47204,-65.72103a4.9216,4.9216 0 0 0 -4.21463,-3.9971l-8.15735,0a4.6225,4.6225 0 0 0 -3.94272,3.9971l0,60.60909a49.21599,49.21599 0 0 1 16.31469,-5.03036l0,-55.57873zm306.11805,115.48084a51.09218,51.09218 0 0 1 -51.41848,0a56.01378,56.01378 0 0 0 -56.09536,0a51.09218,51.09218 0 0 1 -51.41848,0a55.98659,55.98659 0 0 0 -56.09536,0a46.7416,46.7416 0 0 1 -25.69564,6.93375a46.79598,46.79598 0 0 1 -25.69564,-6.93375a51.6632,51.6632 0 0 0 -28.03408,-7.53195a51.50005,51.50005 0 0 0 -28.03408,7.53195a46.7416,46.7416 0 0 1 -25.69564,6.93375a46.76879,46.76879 0 0 1 -25.69564,-6.93375a51.50005,51.50005 0 0 0 -28.03408,-7.53195a51.50005,51.50005 0 0 0 -28.06127,7.53195a49.32476,49.32476 0 0 1 -16.31469,6.17239l0,5.03036a52.96837,52.96837 0 0 0 18.65313,-6.85217a46.7416,46.7416 0 0 1 25.69564,-6.93375a46.76879,46.76879 0 0 1 25.69564,6.93375a51.50005,51.50005 0 0 0 28.03408,7.53195a51.50005,51.50005 0 0 0 28.06127,-7.53195a46.7416,46.7416 0 0 1 25.69564,-6.93375a46.76879,46.76879 0 0 1 25.69564,6.93375a51.6632,51.6632 0 0 0 28.03408,7.53195a51.50005,51.50005 0 0 0 28.03408,-7.53195a51.09218,51.09218 0 0 1 51.41848,0a56.01378,56.01378 0 0 0 56.09536,0a51.09218,51.09218 0 0 1 51.41848,0a56.01378,56.01378 0 0 0 56.09536,0a46.76879,46.76879 0 0 1 25.69564,-6.93375l1.76743,0l0,-4.86722l-1.76743,0a51.6632,51.6632 0 0 0 -28.03408,7.45038z"/>
   <path stroke="null" fill="#000000" d="m492.27756,126.11851a51.44567,51.44567 0 0 0 -28.03408,7.64072a51.01061,51.01061 0 0 1 -51.41848,0a56.04097,56.04097 0 0 0 -56.09536,0a51.09218,51.09218 0 0 1 -51.41848,0a55.98659,55.98659 0 0 0 -56.09536,0c-1.849,0.97888 -3.67081,1.95776 -5.57419,2.71912l-10.87646,-15.363a38.36672,38.36672 0 0 0 14.03064,-29.31207a39.10088,39.10088 0 1 0 -72.13814,21.15472c18.38122,2.52878 21.58978,13.2149 43.50585,13.86749l7.26004,13.59558l-1.79462,0a46.79598,46.79598 0 0 1 -25.69564,-6.93375a51.6632,51.6632 0 0 0 -28.03408,-7.53195a51.50005,51.50005 0 0 0 -28.03408,7.53195a46.7416,46.7416 0 0 1 -25.69564,6.93375a46.76879,46.76879 0 0 1 -25.69564,-6.93375a51.50005,51.50005 0 0 0 -28.03408,-7.53195a51.50005,51.50005 0 0 0 -28.17004,7.83105a49.29757,49.29757 0 0 1 -16.31469,6.19958l0,5.03036a52.94118,52.94118 0 0 0 18.65313,-6.87936a46.7416,46.7416 0 0 1 25.69564,-6.93375a46.76879,46.76879 0 0 1 25.69564,6.93375a51.50005,51.50005 0 0 0 28.03408,7.53195a51.50005,51.50005 0 0 0 28.03408,-7.53195a46.7416,46.7416 0 0 1 25.69564,-6.93375a46.76879,46.76879 0 0 1 25.69564,6.93375a51.6632,51.6632 0 0 0 28.06127,7.53195a51.50005,51.50005 0 0 0 28.03408,-7.53195a51.09218,51.09218 0 0 1 51.41848,0a56.01378,56.01378 0 0 0 56.09536,0a51.09218,51.09218 0 0 1 51.41848,0a56.01378,56.01378 0 0 0 56.09536,0a46.76879,46.76879 0 0 1 25.69564,-6.93375l1.76743,0l0,-5.08475l-1.76743,0zm-284.63703,-11.25714a23.00372,23.00372 0 0 1 0,-45.98025a23.3572,23.3572 0 0 1 22.97653,23.08529a22.97653,22.97653 0 0 1 -22.97653,22.89495z"/>
   <path stroke="null" fill="#000000" d="m464.24348,153.47282a51.09218,51.09218 0 0 1 -51.41848,0a56.01378,56.01378 0 0 0 -56.09536,0a51.09218,51.09218 0 0 1 -51.41848,0a55.98659,55.98659 0 0 0 -56.09536,0a46.7416,46.7416 0 0 1 -25.69564,6.93375a46.76879,46.76879 0 0 1 -25.69564,-6.93375a51.6632,51.6632 0 0 0 -28.03408,-7.53195a51.50005,51.50005 0 0 0 -28.03408,7.53195a46.7416,46.7416 0 0 1 -25.69564,6.93375a46.76879,46.76879 0 0 1 -25.69564,-6.93375a51.50005,51.50005 0 0 0 -28.03408,-7.53195a51.50005,51.50005 0 0 0 -28.06127,7.53195a49.29757,49.29757 0 0 1 -16.31469,6.19958l0,5.03036a52.94118,52.94118 0 0 0 18.65313,-6.87936a46.7416,46.7416 0 0 1 25.69564,-6.93375a46.76879,46.76879 0 0 1 25.69564,6.93375a51.50005,51.50005 0 0 0 28.03408,7.53195a51.50005,51.50005 0 0 0 28.03408,-7.53195a46.7416,46.7416 0 0 1 25.69564,-6.93375a46.76879,46.76879 0 0 1 25.69564,6.93375a51.6632,51.6632 0 0 0 28.06127,7.53195a51.50005,51.50005 0 0 0 28.03408,-7.53195a51.09218,51.09218 0 0 1 51.41848,0a56.01378,56.01378 0 0 0 56.09536,0a51.09218,51.09218 0 0 1 51.41848,0a56.01378,56.01378 0 0 0 56.09536,0a46.76879,46.76879 0 0 1 25.69564,-6.93375l1.76743,0l0,-4.86722l-1.76743,0a51.6632,51.6632 0 0 0 -28.03408,7.45038z"/>
  </g>
 </g>
</svg>