<?xml version="1.0" encoding="iso-8859-1"?>
<!-- Generator: Adobe Illustrator 19.0.0, SVG Export Plug-In . SVG Version: 6.00 Build 0)  -->
<svg version="1.1" id="Capa_1" xmlns="http://www.w3.org/2000/svg" xmlns:xlink="http://www.w3.org/1999/xlink" x="0px" y="0px"
	 viewBox="0 0 512 512" style="enable-background:new 0 0 512 512;" xml:space="preserve">
<path style="fill:#F0EFEB;" d="M512,256c0,135.158-104.741,245.844-237.474,255.342C268.403,511.781,262.228,512,256,512
	c-30.093,0-58.964-5.193-85.786-14.733c-37.397-13.291-70.802-35.046-97.896-62.955C27.564,388.221,0,325.329,0,256
	C0,114.615,114.615,0,256,0S512,114.615,512,256z"/>
<path style="fill:#002C8D;" d="M430.028,166.285c-11.964,79.705-30.553,150.11-138.156,166.045
	c-21.703,3.218-48.567,3.354-77.625,1.515c-11.703-0.731-21.985,7.732-23.625,19.341l-20.407,144.081
	c-37.397-13.291-70.802-35.046-97.896-62.955l51.869-366.289c1.515-10.689,10.668-18.631,21.462-18.631h175.449
	C371.576,49.392,441.981,86.591,430.028,166.285z"/>
<path style="fill:#008EE7;" d="M446.558,352.925c-33.876,64.428-106.935,67.615-124.197,67.615h-18.16
	c-9.686,0-17.889,7.137-19.237,16.718l-10.439,74.083C268.403,511.781,262.228,512,256,512c-30.093,0-58.964-5.193-85.786-14.733
	l44.387-313.448c1.317-9.247,9.226-16.123,18.568-16.123h151.834c27.449,0,62.882,15.872,74.177,41.106
	C470.465,234.036,480.434,288.507,446.558,352.925z"/>
<path style="fill:#142171;" d="M428.07,178.735c-12.194,74.48-34.232,138.501-136.19,153.604
	c-21.718,3.208-48.578,3.348-77.63,1.514c-11.715-0.738-21.997,7.711-23.631,19.327l23.97-169.365
	c1.316-9.245,9.245-16.12,18.57-16.12H385.01C398.7,167.696,414.38,171.641,428.07,178.735z"/>
<g>
</g>
<g>
</g>
<g>
</g>
<g>
</g>
<g>
</g>
<g>
</g>
<g>
</g>
<g>
</g>
<g>
</g>
<g>
</g>
<g>
</g>
<g>
</g>
<g>
</g>
<g>
</g>
<g>
</g>
</svg>
