<?xml version="1.0" encoding="iso-8859-1"?>
<!-- Generator: Adobe Illustrator 19.0.0, SVG Export Plug-In . SVG Version: 6.00 Build 0)  -->
<svg version="1.1" id="Capa_1" xmlns="http://www.w3.org/2000/svg" xmlns:xlink="http://www.w3.org/1999/xlink" x="0px" y="0px"
	 viewBox="0 0 512 512" style="enable-background:new 0 0 512 512;" xml:space="preserve">
<path style="fill:#F0EFEB;" d="M512,256c0,11.839-0.805,23.5-2.372,34.91c-2.299,16.969-6.28,33.405-11.755,49.152
	C463.099,440.153,367.94,512,256,512C114.615,512,0,397.385,0,256c0-24.66,3.49-48.504,10-71.074
	c1.275-4.441,2.675-8.829,4.18-13.166C49.016,71.764,144.123,0,256,0C397.385,0,512,114.615,512,256z"/>
<g>
	<polygon style="fill:#191B73;" points="174.381,339.932 217.583,339.932 244.596,171.732 201.409,171.732 	"/>
	<path style="fill:#191B73;" d="M183.996,171.75l-67.929,168.02H70.353L37.01,215.385c-3.438-12.831-12.33-23.5-24.325-29.215
		c-0.888-0.428-1.787-0.846-2.685-1.243c1.275-4.441,2.675-8.829,4.18-13.166h34.816c14.294,0.188,24.806,8.84,28.108,21.661
		l14.587,71.325c-0.052-0.146-0.125-0.303-0.178-0.449l4.441,21.713l42.329-114.28v0.021L183.996,171.75L183.996,171.75z"/>
	<path style="fill:#191B73;" d="M485,172.251h-33.426c-10.303,0-18.129,2.967-22.591,13.531l-64.167,154.154h45.338l12.487-33.374
		h50.73l6.478,33.499h18.025c5.475-15.747,9.456-32.183,11.755-49.152L485,172.251z M435.21,272.875
		c0.899,0,17.408-54.471,17.408-54.471l13.155,54.471C465.774,272.875,443.747,272.875,435.21,272.875z"/>
	<path style="fill:#191B73;" d="M331.725,240.247c-15.098-7.455-24.352-12.488-24.352-20.112
		c0.185-6.933,7.826-14.036,24.892-14.036c14.036-0.352,24.352,2.946,32.179,6.228l3.92,1.75l5.873-35.192
		c-8.534-3.299-22.064-6.933-38.776-6.933c-42.664,0-72.705,22.182-72.892,53.907c-0.352,23.411,21.508,36.402,37.868,44.196
		c16.712,7.995,22.402,13.177,22.402,20.28c-0.185,10.906-13.514,15.938-25.951,15.938c-17.233,0-26.49-2.591-40.543-8.668
		l-5.689-2.591l-6.042,36.572c10.149,4.511,28.812,8.481,48.184,8.685c45.34,0,74.843-21.846,75.214-55.656
		C368.16,266.065,356.633,251.86,331.725,240.247z"/>
</g>
<g>
</g>
<g>
</g>
<g>
</g>
<g>
</g>
<g>
</g>
<g>
</g>
<g>
</g>
<g>
</g>
<g>
</g>
<g>
</g>
<g>
</g>
<g>
</g>
<g>
</g>
<g>
</g>
<g>
</g>
</svg>
