
<svg width="512" height="238" xmlns="http://www.w3.org/2000/svg" preserveAspectRatio="xMidYMid" version="1.1">

 <g>
  <title>Layer 1</title>
  <g id="svg_1">
   <path id="svg_2" fill-rule="nonzero" fill="#000000" d="m166.32476,104.96956c0,-9.18471 -8.93134,-18.9395 -24.38699,-18.9395c-17.35593,0 -36.42212,12.7319 -39.33589,38.13237c-2.97711,25.65385 12.98528,37.05555 29.07435,37.05555c16.08908,0 24.51368,-6.27094 33.1283,-14.63219c-7.41111,-9.31139 -16.97588,-5.00408 -18.81282,-4.05394c-2.02697,1.01349 -4.62403,2.40703 -9.94482,2.40703c-6.2076,0 -12.54188,-2.78709 -12.54188,-14.37882c39.77929,-3.92726 42.81975,-16.40579 42.81975,-25.5905zm-19.69962,1.52023c-0.25337,2.85042 -1.39354,7.72782 -21.53656,10.45156c4.24397,-15.07559 12.35185,-16.21576 16.08908,-16.21576c3.48385,0 5.70085,2.72374 5.44748,5.7642zm-67.39676,2.47037c0,0 -8.55128,26.85735 -9.24805,29.07435c-0.25337,-2.28034 -6.52431,-50.48422 -6.52431,-50.48422c-14.56885,0 -22.36002,10.38822 -26.4773,21.34653c0,0 -10.38822,26.92069 -11.27502,29.20103c-0.06334,-2.09031 -1.58357,-28.88432 -1.58357,-28.88432c-0.8868,-13.42868 -13.17531,-21.5999 -23.12013,-21.5999l12.03514,73.03427c15.26561,-0.06335 23.50018,-10.38822 27.80749,-21.34653c0,0 9.18471,-23.75356 9.56477,-24.83039c0.06334,1.01349 6.58765,46.17692 6.58765,46.17692c15.32896,0 23.56353,-9.69145 27.99753,-20.2697l21.47321,-52.76457c-15.13893,0 -23.12013,10.32488 -27.23741,21.34653zm143.3448,-23.05679c-9.43808,0 -16.65916,5.13077 -22.74007,12.66857l0,-0.06335l5.44748,-43.89657c-12.54188,0 -22.74007,10.89496 -24.7037,27.11073l-9.50142,78.35506c7.22108,0 14.88556,-2.09031 19.00284,-7.41111c3.67389,4.75071 9.18471,8.55128 17.35594,8.55128c21.1565,0 35.662,-24.57701 35.662,-47.6338c-0.12668,-21.02981 -10.32488,-27.68081 -20.52307,-27.68081zm-1.96363,37.68898c-2.217,12.85859 -9.37474,21.5999 -16.2791,21.5999c-6.96771,0 -9.94483,-3.1038 -9.94483,-3.1038c1.3302,-11.27502 2.15366,-18.17939 4.68737,-24.13361c2.53372,-5.95423 8.55128,-15.45565 14.82222,-15.45565c6.14426,0 8.93134,8.17122 6.71434,21.09316zm75.31461,-35.97872l-14.75888,0l0.06335,-0.76012c1.01348,-9.6281 3.29382,-14.69553 10.83162,-15.51899c5.13077,-0.50674 7.41111,-3.16714 7.9812,-6.08091c0.4434,-2.28034 1.83694,-10.19819 1.83694,-10.19819c-29.64444,-0.19003 -38.95584,12.60522 -41.36286,32.11481l-0.06335,0.4434l-0.31671,0c-4.81405,0 -10.13485,5.44748 -11.02165,12.35185l-0.31672,2.53371l9.88148,0l-8.29791,68.53693l-2.53371,12.28851c0.31672,0 0.69677,0.06334 1.01349,0.06334c13.87208,-0.50674 22.74007,-11.46505 24.7037,-27.3641l6.46096,-53.52468l4.62403,0c4.56068,0 9.88148,-4.56068 10.83162,-12.16182l0.4434,-2.72374zm76.7715,-1.26686c-17.03922,0 -33.1283,12.54188 -38.06904,32.2415c-4.94074,19.69961 2.53372,43.00977 27.61747,43.00977c25.02042,0 39.46258,-24.2603 39.46258,-44.46666c0,-20.07967 -13.61871,-30.78461 -29.01101,-30.78461zm6.90437,36.61215c-0.8868,8.93134 -4.81406,22.4867 -15.58234,22.4867c-10.83162,0 -9.31139,-15.8357 -8.23457,-23.3735c1.14018,-8.04454 5.63752,-19.50959 15.32897,-19.50959c8.67796,0 9.50142,10.32488 8.48794,20.39639zm106.28924,-13.99876c0,0 -8.55128,26.85735 -9.24805,29.07435c-0.25337,-2.28034 -6.52431,-50.48422 -6.52431,-50.48422c-14.56885,0 -22.36001,10.38822 -26.4773,21.34653c0,0 -10.38822,26.92069 -11.27502,29.20103c-0.06334,-2.09031 -1.58357,-28.88432 -1.58357,-28.88432c-0.8868,-13.42868 -13.1753,-21.5999 -23.12013,-21.5999l11.9718,73.03427c15.26561,-0.06335 23.50018,-10.38822 27.80749,-21.34653c0,0 9.18471,-23.75356 9.50143,-24.83039c0.06334,1.01349 6.58765,46.17692 6.58765,46.17692c15.32896,0 23.56353,-9.69145 27.99753,-20.2697l21.47321,-52.76457c-15.07559,0 -23.05679,10.32488 -27.11073,21.34653zm-176.02969,-53.90474l-12.41519,100.145l0,0l-2.53371,12.35185c0.31671,0 0.69677,0.06334 1.01348,0.06334l0,0c13.36534,-0.19003 22.86676,-11.90845 24.64036,-26.66733l7.15774,-57.45193c2.15365,-17.54597 -8.29791,-28.44093 -17.86268,-28.44093z"/>
  </g>
 </g>
</svg>