<svg xml:space="preserve" viewBox="0 0 2878 596" width="100%" y="0px" x="0px" id="Layer_1" version="1.1" xmlns:xlink="http://www.w3.org/1999/xlink" xmlns="http://www.w3.org/2000/svg"> <defs>
    <linearGradient y2="100%" x2="0%" y1="0%" x1="0%" id="goldGradient">
      <stop style="stop-color:#facf37; stop-opacity:1" offset="0%"></stop>
      <stop style="stop-color:#f8ec7e; stop-opacity:1" offset="25%"></stop>
      <stop style="stop-color:#f2c22c; stop-opacity:1" offset="50%"></stop>
      <stop style="stop-color:#f6e763; stop-opacity:1" offset="55%"></stop>
 <stop style="stop-color:#f2c22c; stop-opacity:1" offset="60%"></stop>
      <stop style="stop-color:#f5e160; stop-opacity:1" offset="75%"></stop>
      <stop style="stop-color:#f8ce2f; stop-opacity:1" offset="100%"></stop>
    </linearGradient>
  </defs>
<path d="M1950.000000,597.000000   C1300.000122,597.000000 650.500183,597.000000 1.000174,597.000000   C1.000116,398.333435 1.000116,199.666870 1.000058,1.000228   C960.333069,1.000152 1919.666138,1.000152 2878.999512,1.000076   C2878.999512,199.666428 2878.999512,398.332855 2878.999756,596.999634   C2569.500000,597.000000 2260.000000,597.000000 1950.000000,597.000000  M1656.481567,184.007278   C1648.751587,198.656021 1641.974365,213.712799 1637.095825,229.571899   C1631.696899,247.122406 1628.024658,265.103394 1627.185913,283.384247   C1626.258545,303.598083 1626.822510,323.814941 1630.850464,343.878418   C1634.474365,361.929199 1639.586792,379.472687 1647.142700,396.155701   C1656.910278,417.721252 1669.246216,437.768250 1685.017578,455.642181   C1699.527954,472.087036 1715.323853,486.955627 1733.561768,499.245911   C1748.297241,509.175964 1763.841064,517.387146 1780.292480,524.119934   C1803.057983,533.436768 1826.722046,539.053711 1851.106079,540.761414   C1865.428955,541.764404 1879.927734,540.498169 1894.336792,539.962463   C1909.157471,539.411377 1923.377319,535.579163 1937.427002,531.165466   C1960.500854,523.916992 1981.692261,512.796448 2000.961670,498.331940   C2012.713257,489.510773 2023.540649,479.458344 2034.698853,470.030151   C2019.096680,448.296539 2004.230957,427.588776 1989.385986,406.909882   C1981.308228,413.700531 1973.631348,420.572327 1965.523682,426.891510   C1941.324463,445.752441 1914.634766,458.732025 1883.628906,462.123352   C1865.775024,464.076233 1848.286743,462.898468 1831.047607,458.448639   C1817.365234,454.916840 1804.375977,449.541290 1791.955078,442.583008   C1768.559570,429.476685 1749.496460,411.721130 1734.064819,390.013123   C1722.995361,374.441223 1714.760498,357.288330 1710.541260,338.682312   C1707.643799,325.905273 1706.284912,312.707275 1705.218262,299.617584   C1704.683716,293.057495 1706.320557,286.317017 1707.007935,279.661469   C1708.593994,264.308777 1712.977661,249.640854 1719.220215,235.665329   C1725.416504,221.793076 1733.357300,208.882706 1743.236816,197.153809   C1758.044922,179.573807 1775.179932,164.952362 1795.497437,154.159943   C1809.470093,146.737747 1824.199829,141.161591 1839.727661,138.217346   C1848.990723,136.460983 1858.486572,135.553085 1867.914062,135.178375   C1874.038696,134.934921 1880.225464,136.370880 1886.390137,136.998123   C1900.947510,138.479340 1914.775513,142.650894 1928.067383,148.587921   C1950.868652,158.772644 1970.827637,173.084000 1988.675903,191.161560   C2003.893433,170.710129 2019.024902,150.374176 2034.958740,128.959976   C2022.530518,118.897484 2010.633179,108.396378 1997.851807,99.112701   C1976.775879,83.804611 1953.536377,72.528870 1928.492310,65.169876   C1909.542114,59.601528 1890.127930,56.550354 1870.417236,56.140842   C1861.266602,55.950729 1852.082520,57.314991 1842.915161,57.995491   C1828.011841,59.101776 1813.623047,62.599674 1799.341431,66.886223   C1782.008423,72.088623 1765.753296,79.576012 1750.033569,88.428810   C1733.540161,97.717453 1718.434937,108.923630 1704.774414,121.921501   C1696.186890,130.092285 1687.864746,138.738525 1680.671753,148.127640   C1672.071411,159.354080 1664.802612,171.600723 1656.481567,184.007278  M2151.046387,519.570068   C2152.239990,520.037109 2153.455322,520.455811 2154.624268,520.978271   C2179.438477,532.070190 2205.479736,539.165100 2232.489746,540.707336   C2256.878174,542.099915 2281.359863,541.686890 2305.440674,535.197388   C2325.150391,529.885803 2344.025146,522.912354 2361.304443,512.137695   C2373.199219,504.720490 2384.822021,496.776184 2395.971436,488.286346   C2403.375000,482.648895 2409.728271,475.632355 2416.310059,469.459961   C2400.940918,448.060181 2386.085938,427.376465 2371.694824,407.338165   C2359.612549,416.846710 2348.317871,426.531799 2336.221436,435.082672   C2313.992432,450.796295 2289.107666,460.327911 2261.973389,462.831879   C2245.743652,464.329590 2229.421387,462.911987 2213.592773,458.759125   C2188.131104,452.078796 2165.216797,440.063751 2145.471680,422.740784   C2127.187256,406.699341 2112.140137,387.916718 2102.047607,365.479370   C2091.813232,342.726654 2086.289307,319.065094 2088.067383,294.021393   C2088.666260,285.588135 2089.614746,277.141388 2091.053711,268.813110   C2095.956055,240.437653 2108.968506,215.746170 2127.538574,194.205048   C2145.631104,173.217911 2167.621826,157.234100 2193.555420,146.700317   C2211.680420,139.338150 2230.519287,135.980637 2249.800781,135.226624   C2257.989990,134.906387 2266.286377,136.906128 2274.511963,138.016327   C2295.981689,140.914078 2315.437744,149.444672 2333.293213,161.127655   C2346.569092,169.814133 2358.679932,180.281082 2371.496338,190.097870   C2386.022705,170.556335 2401.156250,150.198212 2416.958496,128.940506   C2404.423828,118.769455 2392.672363,108.287407 2379.963379,99.134544   C2358.844971,83.925262 2335.661621,72.553604 2310.596680,65.220078   C2291.474854,59.625298 2271.914551,56.329384 2252.040527,56.191181   C2240.464600,56.110683 2228.858154,57.827553 2217.295898,59.030636   C2200.049561,60.825150 2183.636230,65.779030 2167.378418,71.759758   C2138.000244,82.567062 2111.979004,98.838776 2089.044922,119.785538   C2077.657715,130.186188 2067.137451,141.820740 2057.755615,154.069351   C2041.536621,175.243973 2029.489868,198.854553 2020.907349,224.212967   C2014.546875,243.005783 2010.213501,262.324615 2009.308960,281.993530   C2008.499634,299.590485 2009.030151,317.489655 2011.414551,334.920990   C2013.531250,350.395020 2018.184204,365.685333 2023.173706,380.568604   C2033.038696,409.995026 2049.197510,436.045837 2069.849121,459.064148   C2079.191162,469.476868 2089.898682,478.745636 2100.535156,487.896271   C2115.535400,500.801483 2132.469482,510.821899 2151.046387,519.570068  M799.994324,191.500000   C799.994324,305.578217 799.994324,419.656403 799.994324,533.749023   C826.254089,533.749023 851.989807,533.749023 878.112427,533.749023   C878.112427,473.763214 878.112427,414.032837 878.112427,354.006073   C895.463013,354.006073 912.427002,353.967499 929.389648,354.096313   C930.475830,354.104553 931.886169,355.170349 932.582520,356.146149   C941.776123,369.028473 950.892883,381.965912 959.980713,394.923370   C972.865051,413.293915 985.774414,431.647491 998.555481,450.089783   C1017.118530,476.875397 1035.573975,503.735565 1054.084839,530.557373   C1055.680908,532.869995 1057.419556,534.159851 1060.746826,534.134460   C1089.905518,533.911804 1119.066772,534.005676 1148.227173,534.005676   C1149.654053,534.005676 1151.080933,534.005676 1153.104004,534.005676   C1107.582397,471.414581 1062.437378,409.341187 1017.305359,347.285797   C1021.166382,345.724304 1025.113159,344.345001 1028.874146,342.571655   C1051.973999,331.679871 1070.308716,315.300323 1084.428467,294.091003   C1097.076172,275.092743 1104.829102,254.093750 1106.698120,231.540802   C1107.966797,216.229095 1107.682495,200.709518 1104.177979,185.321228   C1098.535767,160.545883 1087.551758,138.650650 1070.995117,119.631866   C1053.936157,100.036072 1033.123901,85.481110 1008.868652,75.983917   C993.598633,70.004875 977.797485,65.335144 961.439453,65.179276   C909.122070,64.680771 856.796936,64.992363 804.474792,65.004051   C803.040894,65.004372 801.606995,65.150597 799.994324,65.238533   C799.994324,107.224236 799.994324,148.862122 799.994324,191.500000  M524.434021,136.040558   C521.282959,143.067886 518.192993,150.123398 514.970154,157.117676   C501.337036,186.704544 487.675690,216.278412 474.001587,245.846313   C467.196716,260.560577 460.294312,275.229858 453.520020,289.958130   C440.646484,317.947083 427.833588,345.963898 414.995026,373.968933   C407.504150,390.308868 400.056946,406.669006 392.511017,422.983490   C379.575104,450.951416 366.563202,478.884216 353.613281,506.845703   C349.461548,515.810120 345.405029,524.818604 341.213623,534.007141   C367.938629,534.007141 394.271149,533.816528 420.596039,534.179688   C425.434692,534.246460 427.274200,532.119934 428.848267,528.509460   C432.435150,520.282166 435.959503,512.026428 439.647186,503.844482   C444.919067,492.147583 450.732483,480.671112 455.429871,468.751862   C457.073517,464.581299 458.949310,463.942413 462.723450,463.947845   C521.717407,464.032562 580.711609,464.007233 639.705688,464.007202   C649.871338,464.007202 660.040222,464.149719 670.200623,463.918579   C673.170654,463.851013 674.772522,464.867645 675.843079,467.416321   C678.200623,473.028900 680.520447,478.660583 683.032593,484.204315   C690.557983,500.811279 698.168457,517.379700 705.586914,533.615601   C733.856140,533.615601 761.870789,533.615601 790.258728,533.615601   C783.313171,518.257568 776.640198,503.338776 769.828491,488.483612   C762.067566,471.558380 754.170288,454.695709 746.354797,437.795441   C733.555176,410.117615 720.771240,382.432434 707.985107,354.748322   C694.663025,325.903992 681.366211,297.048035 668.019043,268.215363   C660.871094,252.774429 653.586670,237.396622 646.459106,221.946365   C633.619385,194.114182 620.867371,166.241531 608.044861,138.401367   C603.142029,127.756378 598.082886,117.183174 593.207214,106.525917   C585.344971,89.340172 577.575684,72.111893 569.873413,55.135960   C561.578674,54.851776 561.610657,54.865364 559.371643,60.139820   C556.929993,65.891479 554.536438,71.667747 551.920593,77.340416   C542.978699,96.731697 533.948364,116.082184 524.434021,136.040558  M2397.996826,358.393646   C2399.620117,363.764709 2401.197510,369.150085 2402.875000,374.504181   C2408.225098,391.581787 2415.819824,407.612854 2424.946533,423.003143   C2440.220459,448.759491 2459.670410,470.906708 2483.072998,489.384979   C2501.184814,503.686127 2521.067139,515.273499 2542.563232,523.963745   C2565.788818,533.353149 2589.964355,539.226318 2614.834473,540.708984   C2632.076416,541.736877 2649.489746,541.873657 2666.827637,539.184265   C2681.699707,536.877319 2696.254639,533.715942 2710.562744,529.118225   C2727.779785,523.585693 2744.147217,516.059448 2759.453857,506.636353   C2771.266113,499.364502 2782.487793,490.946899 2793.152588,482.055756   C2801.973877,474.701202 2809.961182,466.235382 2817.643555,457.657745   C2824.567383,449.926514 2831.493164,441.922089 2836.778320,433.060150   C2845.225342,418.897247 2853.060547,404.259033 2859.804199,389.216370   C2870.195312,366.037903 2875.083740,341.255890 2876.802002,316.030701   C2877.641846,303.695740 2876.869873,291.171112 2875.851074,278.812836   C2874.920410,267.526306 2873.281494,256.216644 2870.885742,245.148651   C2865.020752,218.057617 2854.307129,192.912674 2839.250732,169.575897   C2827.521973,151.397568 2814.256104,134.537659 2797.811279,120.429314   C2787.937012,111.958023 2778.025391,103.348434 2767.206787,96.198776   C2747.176514,82.961060 2725.571045,72.406380 2702.311768,66.293571   C2686.263428,62.075851 2669.754150,58.865788 2653.253418,57.342133   C2638.826416,56.010006 2624.118896,57.506439 2609.545410,58.034328   C2592.765381,58.642139 2576.605225,62.797604 2560.711670,67.783546   C2536.966553,75.232635 2514.955566,86.188530 2494.581299,100.659592   C2475.101318,114.495338 2457.966553,130.585541 2443.141846,149.289139   C2424.537842,172.760239 2410.888184,198.763626 2401.974609,227.335800   C2394.804443,250.320190 2390.945312,273.819244 2391.095459,297.874207   C2391.160156,308.209900 2391.920166,318.585846 2393.110352,328.857025   C2394.224609,338.475281 2396.325195,347.979279 2397.996826,358.393646  M1621.046997,329.744293   C1621.699707,324.910828 1622.901245,320.076965 1622.897705,315.243988   C1622.888672,302.992737 1622.868164,290.697784 1621.851440,278.503754   C1620.910156,267.214844 1619.267334,255.905975 1616.885620,244.831253   C1611.193970,218.365005 1600.722290,193.698196 1586.255493,170.872421   C1572.559937,149.263580 1556.454468,129.533310 1536.114136,113.776268   C1524.381104,104.686989 1512.438965,95.651955 1499.674438,88.152275   C1468.931519,70.089302 1435.351562,59.682503 1399.872803,57.338810   C1380.834717,56.081181 1361.402344,57.022621 1342.443237,59.363609   C1321.904175,61.899647 1301.927368,67.970924 1282.908203,76.558807   C1245.825928,93.302933 1214.342041,117.204788 1189.108765,149.304337   C1170.597046,172.853271 1156.874756,198.802231 1147.965088,227.386978   C1140.847900,250.220261 1137.135864,273.555786 1137.050049,297.445557   C1137.024536,304.528961 1137.276733,311.658722 1138.079712,318.689789   C1139.479614,330.947632 1140.501099,343.356781 1143.297852,355.324768   C1149.361816,381.274536 1159.677002,405.610931 1174.004639,428.173523   C1188.883667,451.604309 1207.102295,472.126953 1228.897461,489.228149   C1247.444946,503.781036 1267.698242,515.614807 1289.720337,524.372864   C1312.714600,533.517578 1336.568237,539.340332 1361.129761,540.725891   C1380.667114,541.828064 1400.324219,541.658325 1419.883057,538.190063   C1439.961060,534.629822 1459.387329,529.227051 1477.917603,520.932190   C1513.664551,504.930420 1544.339722,482.157715 1569.080811,451.539764   C1579.583496,438.542389 1588.635010,424.659271 1596.489990,409.975067   C1604.926758,394.203217 1611.059448,377.446686 1615.753418,360.263947   C1618.383789,350.635132 1619.312744,340.541534 1621.046997,329.744293  M51.621727,534.002258   C109.787048,534.002258 167.953033,534.143188 226.117050,533.867981   C236.195557,533.820312 246.363327,532.588867 256.321259,530.906250   C284.901184,526.077087 309.234406,512.659241 329.825745,492.508820   C335.279541,487.171722 339.968292,480.983124 344.563507,474.852142   C356.212097,459.310547 363.269928,441.631287 368.008270,422.928772   C371.361450,409.693420 371.730988,396.167786 370.816620,382.726318   C370.150482,372.933929 368.559967,363.045135 366.003113,353.571381   C359.126007,328.090332 344.397644,307.561676 323.765137,291.375031   C308.644562,279.512604 291.632507,271.489075 271.852692,268.097687   C272.388275,267.250549 273.322632,266.868347 274.176178,266.352509   C285.422546,259.556122 292.852905,249.259842 299.246094,238.219040   C312.242737,215.774292 314.802002,191.225098 310.736481,166.297775   C306.848785,142.460678 295.042450,121.958466 278.123871,104.795204   C265.523743,92.012848 250.554214,82.351212 233.933105,75.461319   C219.664749,69.546707 204.712616,65.371498 189.348892,65.191483   C143.356293,64.652596 97.353325,64.995575 51.354412,65.007568   C49.930706,65.007942 48.507038,65.154503 46.997673,65.237633   C46.997673,67.002762 46.997673,68.328300 46.997673,69.653839   C46.997673,222.816910 46.997665,375.979980 46.997677,529.143066   C46.997677,529.643066 47.071369,530.156006 46.985786,530.640869   C46.445538,533.702026 48.041832,534.395203 51.621727,534.002258  z" stroke="none" opacity="000000" fill="#FFFFFF00"></path>
<path d="M1656.719360,183.706390   C1664.802612,171.600723 1672.071411,159.354080 1680.671753,148.127640   C1687.864746,138.738525 1696.186890,130.092285 1704.774414,121.921501   C1718.434937,108.923630 1733.540161,97.717453 1750.033569,88.428810   C1765.753296,79.576012 1782.008423,72.088623 1799.341431,66.886223   C1813.623047,62.599674 1828.011841,59.101776 1842.915161,57.995491   C1852.082520,57.314991 1861.266602,55.950729 1870.417236,56.140842   C1890.127930,56.550354 1909.542114,59.601528 1928.492310,65.169876   C1953.536377,72.528870 1976.775879,83.804611 1997.851807,99.112701   C2010.633179,108.396378 2022.530518,118.897484 2034.958740,128.959976   C2019.024902,150.374176 2003.893433,170.710129 1988.675903,191.161560   C1970.827637,173.084000 1950.868652,158.772644 1928.067383,148.587921   C1914.775513,142.650894 1900.947510,138.479340 1886.390137,136.998123   C1880.225464,136.370880 1874.038696,134.934921 1867.914062,135.178375   C1858.486572,135.553085 1848.990723,136.460983 1839.727661,138.217346   C1824.199829,141.161591 1809.470093,146.737747 1795.497437,154.159943   C1775.179932,164.952362 1758.044922,179.573807 1743.236816,197.153809   C1733.357300,208.882706 1725.416504,221.793076 1719.220215,235.665329   C1712.977661,249.640854 1708.593994,264.308777 1707.007935,279.661469   C1706.320557,286.317017 1704.683716,293.057495 1705.218262,299.617584   C1706.284912,312.707275 1707.643799,325.905273 1710.541260,338.682312   C1714.760498,357.288330 1722.995361,374.441223 1734.064819,390.013123   C1749.496460,411.721130 1768.559570,429.476685 1791.955078,442.583008   C1804.375977,449.541290 1817.365234,454.916840 1831.047607,458.448639   C1848.286743,462.898468 1865.775024,464.076233 1883.628906,462.123352   C1914.634766,458.732025 1941.324463,445.752441 1965.523682,426.891510   C1973.631348,420.572327 1981.308228,413.700531 1989.385986,406.909882   C2004.230957,427.588776 2019.096680,448.296539 2034.698853,470.030151   C2023.540649,479.458344 2012.713257,489.510773 2000.961670,498.331940   C1981.692261,512.796448 1960.500854,523.916992 1937.427002,531.165466   C1923.377319,535.579163 1909.157471,539.411377 1894.336792,539.962463   C1879.927734,540.498169 1865.428955,541.764404 1851.106079,540.761414   C1826.722046,539.053711 1803.057983,533.436768 1780.292480,524.119934   C1763.841064,517.387146 1748.297241,509.175964 1733.561768,499.245911   C1715.323853,486.955627 1699.527954,472.087036 1685.017578,455.642181   C1669.246216,437.768250 1656.910278,417.721252 1647.142700,396.155701   C1639.586792,379.472687 1634.474365,361.929199 1630.850464,343.878418   C1626.822510,323.814941 1626.258545,303.598083 1627.185913,283.384247   C1628.024658,265.103394 1631.696899,247.122406 1637.095825,229.571899   C1641.974365,213.712799 1648.751587,198.656021 1656.719360,183.706390  M1714.156860,473.352936   C1803.810913,552.878357 1939.525757,555.471436 2022.845581,468.095734   C2011.240723,451.921753 1999.614990,435.718689 1987.953979,419.466492   C1903.657227,497.543640 1809.302246,479.386322 1749.776367,421.444733   C1684.518799,357.924072 1679.250610,262.140900 1736.282471,192.124313   C1765.328613,156.464874 1802.852173,134.322983 1848.627319,128.491531   C1902.955322,121.570526 1948.048828,142.683167 1987.795532,178.180038   C1999.606567,162.261307 2011.272705,146.537643 2023.280640,130.353561   C2015.455933,123.868370 2008.254395,117.422119 2000.572388,111.611084   C1953.596436,76.075935 1901.052856,59.089275 1842.039795,66.299164   C1779.068604,73.992645 1727.660889,103.669678 1687.934448,152.638458   C1644.692383,205.940842 1627.666748,267.189606 1638.030518,335.264740   C1646.391357,390.184143 1672.615479,435.689575 1714.156860,473.352936  z" stroke="none" opacity="1.000000" fill="#040301"></path>
<path d="M2150.752441,519.308777   C2132.469482,510.821899 2115.535400,500.801483 2100.535156,487.896271   C2089.898682,478.745636 2079.191162,469.476868 2069.849121,459.064148   C2049.197510,436.045837 2033.038696,409.995026 2023.173706,380.568604   C2018.184204,365.685333 2013.531250,350.395020 2011.414551,334.920990   C2009.030151,317.489655 2008.499634,299.590485 2009.308960,281.993530   C2010.213501,262.324615 2014.546875,243.005783 2020.907349,224.212967   C2029.489868,198.854553 2041.536621,175.243973 2057.755615,154.069351   C2067.137451,141.820740 2077.657715,130.186188 2089.044922,119.785538   C2111.979004,98.838776 2138.000244,82.567062 2167.378418,71.759758   C2183.636230,65.779030 2200.049561,60.825150 2217.295898,59.030636   C2228.858154,57.827553 2240.464600,56.110683 2252.040527,56.191181   C2271.914551,56.329384 2291.474854,59.625298 2310.596680,65.220078   C2335.661621,72.553604 2358.844971,83.925262 2379.963379,99.134544   C2392.672363,108.287407 2404.423828,118.769455 2416.958496,128.940506   C2401.156250,150.198212 2386.022705,170.556335 2371.496338,190.097870   C2358.679932,180.281082 2346.569092,169.814133 2333.293213,161.127655   C2315.437744,149.444672 2295.981689,140.914078 2274.511963,138.016327   C2266.286377,136.906128 2257.989990,134.906387 2249.800781,135.226624   C2230.519287,135.980637 2211.680420,139.338150 2193.555420,146.700317   C2167.621826,157.234100 2145.631104,173.217911 2127.538574,194.205048   C2108.968506,215.746170 2095.956055,240.437653 2091.053711,268.813110   C2089.614746,277.141388 2088.666260,285.588135 2088.067383,294.021393   C2086.289307,319.065094 2091.813232,342.726654 2102.047607,365.479370   C2112.140137,387.916718 2127.187256,406.699341 2145.471680,422.740784   C2165.216797,440.063751 2188.131104,452.078796 2213.592773,458.759125   C2229.421387,462.911987 2245.743652,464.329590 2261.973389,462.831879   C2289.107666,460.327911 2313.992432,450.796295 2336.221436,435.082672   C2348.317871,426.531799 2359.612549,416.846710 2371.694824,407.338165   C2386.085938,427.376465 2400.940918,448.060181 2416.310059,469.459961   C2409.728271,475.632355 2403.375000,482.648895 2395.971436,488.286346   C2384.822021,496.776184 2373.199219,504.720490 2361.304443,512.137695   C2344.025146,522.912354 2325.150391,529.885803 2305.440674,535.197388   C2281.359863,541.686890 2256.878174,542.099915 2232.489746,540.707336   C2205.479736,539.165100 2179.438477,532.070190 2154.624268,520.978271   C2153.455322,520.455811 2152.239990,520.037109 2150.752441,519.308777  M2379.117432,490.651703   C2387.816650,483.438293 2396.515869,476.224915 2405.399658,468.858459   C2393.319336,452.036438 2381.629150,435.757416 2370.760254,420.622375   C2356.127197,430.775604 2342.659424,441.532043 2327.906250,450.066071   C2296.091797,468.469391 2261.732178,475.754303 2225.088135,469.373535   C2181.995361,461.869843 2146.607910,440.824921 2118.659424,407.431549   C2094.384521,378.427460 2080.420654,344.755676 2079.403564,306.983978   C2077.751221,245.612610 2102.811279,196.078842 2152.258789,160.354111   C2206.252686,121.344933 2264.262207,115.974167 2324.504150,146.181473   C2341.104492,154.505463 2355.933594,165.482513 2369.642334,178.375229   C2381.454590,162.465897 2393.146729,146.717972 2404.955322,130.813461   C2402.706055,128.629272 2400.843994,126.486549 2398.656250,124.754738   C2389.524170,117.525436 2380.668945,109.864738 2371.037598,103.361069   C2319.177490,68.341705 2262.474854,56.377804 2201.222412,70.181786   C2146.238770,82.573021 2101.373047,111.869362 2066.982178,156.300583   C2022.650757,213.574188 2007.167236,278.419189 2022.619385,349.191681   C2043.743530,445.942108 2124.913086,518.790161 2223.129150,531.213501   C2280.206787,538.433350 2332.186523,525.570862 2379.117432,490.651703  z" stroke="none" opacity="1.000000" fill="#040301"></path>
<path d="M799.994324,191.000000   C799.994324,148.862122 799.994324,107.224236 799.994324,65.238533   C801.606995,65.150597 803.040894,65.004372 804.474792,65.004051   C856.796936,64.992363 909.122070,64.680771 961.439453,65.179276   C977.797485,65.335144 993.598633,70.004875 1008.868652,75.983917   C1033.123901,85.481110 1053.936157,100.036072 1070.995117,119.631866   C1087.551758,138.650650 1098.535767,160.545883 1104.177979,185.321228   C1107.682495,200.709518 1107.966797,216.229095 1106.698120,231.540802   C1104.829102,254.093750 1097.076172,275.092743 1084.428467,294.091003   C1070.308716,315.300323 1051.973999,331.679871 1028.874146,342.571655   C1025.113159,344.345001 1021.166382,345.724304 1017.305359,347.285797   C1062.437378,409.341187 1107.582397,471.414581 1153.104004,534.005676   C1151.080933,534.005676 1149.654053,534.005676 1148.227173,534.005676   C1119.066772,534.005676 1089.905518,533.911804 1060.746826,534.134460   C1057.419556,534.159851 1055.680908,532.869995 1054.084839,530.557373   C1035.573975,503.735565 1017.118530,476.875397 998.555481,450.089783   C985.774414,431.647491 972.865051,413.293915 959.980713,394.923370   C950.892883,381.965912 941.776123,369.028473 932.582520,356.146149   C931.886169,355.170349 930.475830,354.104553 929.389648,354.096313   C912.427002,353.967499 895.463013,354.006073 878.112427,354.006073   C878.112427,414.032837 878.112427,473.763214 878.112427,533.749023   C851.989807,533.749023 826.254089,533.749023 799.994324,533.749023   C799.994324,419.656403 799.994324,305.578217 799.994324,191.000000  M950.600830,366.875153   C986.671082,418.644409 1022.764648,470.397491 1058.746948,522.227844   C1060.661255,524.985229 1062.583252,526.099854 1065.978149,526.074768   C1087.806274,525.913391 1109.636230,525.992310 1131.465576,525.992310   C1132.891357,525.992310 1134.317139,525.992310 1136.587158,525.992310   C1135.095703,523.835266 1134.125366,522.370544 1133.093872,520.950134   C1125.170288,510.038269 1117.235107,499.134857 1109.303345,488.228973   C1077.082153,443.926727 1044.855469,399.628510 1012.644897,355.318481   C1006.857788,347.357574 1008.026245,342.032837 1016.188660,338.779510   C1076.264771,314.834869 1109.753540,252.140076 1096.406494,188.616821   C1082.295654,121.458794 1020.283447,74.089462 952.878479,73.133728   C906.562866,72.477020 860.230530,73.007812 813.905640,73.007812   C812.272766,73.007812 810.639893,73.007812 808.916626,73.007812   C808.916626,224.145874 808.916626,374.845581 808.916626,525.619263   C829.487915,525.619263 849.682800,525.619263 869.992310,525.619263   C869.992310,523.917419 869.992310,522.588135 869.992310,521.258911   C869.992310,466.602234 869.985352,411.945557 870.000061,357.288879   C870.002197,349.323975 872.783875,346.071869 880.003174,346.026245   C896.666199,345.920990 913.330200,345.997528 929.993835,345.989471   C934.128357,345.987488 937.313293,347.568634 939.652039,351.106140   C943.047974,356.242401 946.652283,361.240906 950.600830,366.875153  z" stroke="none" opacity="1.000000" fill="#040401"></path>
<path d="M524.692871,135.744385   C533.948364,116.082184 542.978699,96.731697 551.920593,77.340416   C554.536438,71.667747 556.929993,65.891479 559.371643,60.139820   C561.610657,54.865364 561.578674,54.851776 569.873413,55.135960   C577.575684,72.111893 585.344971,89.340172 593.207214,106.525917   C598.082886,117.183174 603.142029,127.756378 608.044861,138.401367   C620.867371,166.241531 633.619385,194.114182 646.459106,221.946365   C653.586670,237.396622 660.871094,252.774429 668.019043,268.215363   C681.366211,297.048035 694.663025,325.903992 707.985107,354.748322   C720.771240,382.432434 733.555176,410.117615 746.354797,437.795441   C754.170288,454.695709 762.067566,471.558380 769.828491,488.483612   C776.640198,503.338776 783.313171,518.257568 790.258728,533.615601   C761.870789,533.615601 733.856140,533.615601 705.586914,533.615601   C698.168457,517.379700 690.557983,500.811279 683.032593,484.204315   C680.520447,478.660583 678.200623,473.028900 675.843079,467.416321   C674.772522,464.867645 673.170654,463.851013 670.200623,463.918579   C660.040222,464.149719 649.871338,464.007202 639.705688,464.007202   C580.711609,464.007233 521.717407,464.032562 462.723450,463.947845   C458.949310,463.942413 457.073517,464.581299 455.429871,468.751862   C450.732483,480.671112 444.919067,492.147583 439.647186,503.844482   C435.959503,512.026428 432.435150,520.282166 428.848267,528.509460   C427.274200,532.119934 425.434692,534.246460 420.596039,534.179688   C394.271149,533.816528 367.938629,534.007141 341.213623,534.007141   C345.405029,524.818604 349.461548,515.810120 353.613281,506.845703   C366.563202,478.884216 379.575104,450.951416 392.511017,422.983490   C400.056946,406.669006 407.504150,390.308868 414.995026,373.968933   C427.833588,345.963898 440.646484,317.947083 453.520020,289.958130   C460.294312,275.229858 467.196716,260.560577 474.001587,245.846313   C487.675690,216.278412 501.337036,186.704544 514.970154,157.117676   C518.192993,150.123398 521.282959,143.067886 524.692871,135.744385  M692.083984,483.329559   C697.890869,496.210205 703.793213,509.049286 709.432983,522.002686   C710.733521,524.989746 712.198792,526.139526 715.617676,526.092041   C731.943420,525.865234 748.273926,525.990356 764.602783,525.990356   C768.684875,525.990356 772.767029,525.990356 777.589417,525.990356   C706.930847,372.739197 636.619080,220.240341 565.861755,66.775009   C495.062775,220.341019 424.733673,372.887848 354.148376,525.990356   C375.534943,525.990356 395.858215,525.886108 416.178436,526.090881   C419.646698,526.125854 421.028564,524.862061 422.335144,521.905457   C430.664429,503.057220 439.465485,484.413025 447.529510,465.454193   C450.655487,458.104950 455.075043,455.289215 463.078583,455.317017   C531.558838,455.555115 600.040344,455.453430 668.521484,455.454163   C669.854431,455.454163 671.187805,455.442719 672.520203,455.472656   C677.521118,455.585083 680.904175,457.848267 682.884399,462.586823   C685.703247,469.332184 688.845825,475.942230 692.083984,483.329559  z" stroke="none" opacity="1.000000" fill="#050401"></path>
<path d="M2397.994141,357.963623   C2396.325195,347.979279 2394.224609,338.475281 2393.110352,328.857025   C2391.920166,318.585846 2391.160156,308.209900 2391.095459,297.874207   C2390.945312,273.819244 2394.804443,250.320190 2401.974609,227.335800   C2410.888184,198.763626 2424.537842,172.760239 2443.141846,149.289139   C2457.966553,130.585541 2475.101318,114.495338 2494.581299,100.659592   C2514.955566,86.188530 2536.966553,75.232635 2560.711670,67.783546   C2576.605225,62.797604 2592.765381,58.642139 2609.545410,58.034328   C2624.118896,57.506439 2638.826416,56.010006 2653.253418,57.342133   C2669.754150,58.865788 2686.263428,62.075851 2702.311768,66.293571   C2725.571045,72.406380 2747.176514,82.961060 2767.206787,96.198776   C2778.025391,103.348434 2787.937012,111.958023 2797.811279,120.429314   C2814.256104,134.537659 2827.521973,151.397568 2839.250732,169.575897   C2854.307129,192.912674 2865.020752,218.057617 2870.885742,245.148651   C2873.281494,256.216644 2874.920410,267.526306 2875.851074,278.812836   C2876.869873,291.171112 2877.641846,303.695740 2876.802002,316.030701   C2875.083740,341.255890 2870.195312,366.037903 2859.804199,389.216370   C2853.060547,404.259033 2845.225342,418.897247 2836.778320,433.060150   C2831.493164,441.922089 2824.567383,449.926514 2817.643555,457.657745   C2809.961182,466.235382 2801.973877,474.701202 2793.152588,482.055756   C2782.487793,490.946899 2771.266113,499.364502 2759.453857,506.636353   C2744.147217,516.059448 2727.779785,523.585693 2710.562744,529.118225   C2696.254639,533.715942 2681.699707,536.877319 2666.827637,539.184265   C2649.489746,541.873657 2632.076416,541.736877 2614.834473,540.708984   C2589.964355,539.226318 2565.788818,533.353149 2542.563232,523.963745   C2521.067139,515.273499 2501.184814,503.686127 2483.072998,489.384979   C2459.670410,470.906708 2440.220459,448.759491 2424.946533,423.003143   C2415.819824,407.612854 2408.225098,391.581787 2402.875000,374.504181   C2401.197510,369.150085 2399.620117,363.764709 2397.994141,357.963623  M2676.661133,68.735390   C2643.428223,62.773758 2610.317871,63.448818 2577.567383,71.618958   C2475.949707,96.968880 2403.897217,187.521179 2399.819336,287.429779   C2396.609375,366.069489 2425.844971,430.631012 2486.031494,480.455048   C2534.160156,520.297363 2590.414307,537.222351 2652.861328,532.126465   C2720.154541,526.635010 2775.081787,496.895020 2817.384521,444.801666   C2858.183350,394.559784 2874.521484,336.540100 2867.112061,272.174652   C2860.393311,213.809387 2834.323486,165.164368 2791.181152,125.706558   C2758.765625,96.059441 2720.759766,77.094482 2676.661133,68.735390  z" stroke="none" opacity="1.000000" fill="#040301"></path>
<path d="M1621.027588,330.200806   C1619.312744,340.541534 1618.383789,350.635132 1615.753418,360.263947   C1611.059448,377.446686 1604.926758,394.203217 1596.489990,409.975067   C1588.635010,424.659271 1579.583496,438.542389 1569.080811,451.539764   C1544.339722,482.157715 1513.664551,504.930420 1477.917603,520.932190   C1459.387329,529.227051 1439.961060,534.629822 1419.883057,538.190063   C1400.324219,541.658325 1380.667114,541.828064 1361.129761,540.725891   C1336.568237,539.340332 1312.714600,533.517578 1289.720337,524.372864   C1267.698242,515.614807 1247.444946,503.781036 1228.897461,489.228149   C1207.102295,472.126953 1188.883667,451.604309 1174.004639,428.173523   C1159.677002,405.610931 1149.361816,381.274536 1143.297852,355.324768   C1140.501099,343.356781 1139.479614,330.947632 1138.079712,318.689789   C1137.276733,311.658722 1137.024536,304.528961 1137.050049,297.445557   C1137.135864,273.555786 1140.847900,250.220261 1147.965088,227.386978   C1156.874756,198.802231 1170.597046,172.853271 1189.108765,149.304337   C1214.342041,117.204788 1245.825928,93.302933 1282.908203,76.558807   C1301.927368,67.970924 1321.904175,61.899647 1342.443237,59.363609   C1361.402344,57.022621 1380.834717,56.081181 1399.872803,57.338810   C1435.351562,59.682503 1468.931519,70.089302 1499.674438,88.152275   C1512.438965,95.651955 1524.381104,104.686989 1536.114136,113.776268   C1556.454468,129.533310 1572.559937,149.263580 1586.255493,170.872421   C1600.722290,193.698196 1611.193970,218.365005 1616.885620,244.831253   C1619.267334,255.905975 1620.910156,267.214844 1621.851440,278.503754   C1622.868164,290.697784 1622.888672,302.992737 1622.897705,315.243988   C1622.901245,320.076965 1621.699707,324.910828 1621.027588,330.200806  M1276.561035,88.966972   C1247.007446,103.495544 1221.534058,123.364372 1200.554932,148.664047   C1164.059937,192.674713 1145.066406,243.233337 1145.560059,300.685089   C1146.191772,374.226440 1175.890137,434.265137 1232.195190,480.603394   C1280.432251,520.301880 1336.616455,537.247742 1399.033569,532.118103   C1466.106689,526.605835 1520.908203,496.968689 1563.148560,445.100037   C1604.124268,394.784424 1620.423218,336.654358 1613.143433,272.099274   C1607.369873,220.900085 1586.224609,176.586929 1551.058472,139.327179   C1509.799194,95.611824 1459.026489,70.506561 1398.785889,65.708374   C1356.242432,62.319763 1315.591553,69.540825 1276.561035,88.966972  z" stroke="none" opacity="1.000000" fill="#040301"></path>
<path d="M51.136154,534.002258   C48.041832,534.395203 46.445538,533.702026 46.985786,530.640869   C47.071369,530.156006 46.997677,529.643066 46.997677,529.143066   C46.997665,375.979980 46.997673,222.816910 46.997673,69.653839   C46.997673,68.328300 46.997673,67.002762 46.997673,65.237633   C48.507038,65.154503 49.930706,65.007942 51.354412,65.007568   C97.353325,64.995575 143.356293,64.652596 189.348892,65.191483   C204.712616,65.371498 219.664749,69.546707 233.933105,75.461319   C250.554214,82.351212 265.523743,92.012848 278.123871,104.795204   C295.042450,121.958466 306.848785,142.460678 310.736481,166.297775   C314.802002,191.225098 312.242737,215.774292 299.246094,238.219040   C292.852905,249.259842 285.422546,259.556122 274.176178,266.352509   C273.322632,266.868347 272.388275,267.250549 271.852692,268.097687   C291.632507,271.489075 308.644562,279.512604 323.765137,291.375031   C344.397644,307.561676 359.126007,328.090332 366.003113,353.571381   C368.559967,363.045135 370.150482,372.933929 370.816620,382.726318   C371.730988,396.167786 371.361450,409.693420 368.008270,422.928772   C363.269928,441.631287 356.212097,459.310547 344.563507,474.852142   C339.968292,480.983124 335.279541,487.171722 329.825745,492.508820   C309.234406,512.659241 284.901184,526.077087 256.321259,530.906250   C246.363327,532.588867 236.195557,533.820312 226.117050,533.867981   C167.953033,534.143188 109.787048,534.002258 51.136154,534.002258  M78.500031,73.002625   C70.737579,73.002625 62.975124,73.002625 55.342438,73.002625   C55.342438,224.364822 55.342438,375.089447 55.342438,525.997559   C57.501804,525.997559 59.322193,525.997498 61.142578,525.997498   C114.139648,525.997498 167.137070,526.097046 220.133469,525.907776   C229.923798,525.872864 239.819672,525.377808 249.478043,523.878723   C281.948364,518.839111 309.338654,504.028381 330.618866,478.877167   C356.013794,448.862640 366.129028,414.042328 362.173157,374.928253   C357.350037,327.239075 318.939117,285.480865 271.691132,276.975006   C267.746277,276.264832 264.190430,274.935822 263.095154,270.523071   C261.946960,265.896973 264.363434,262.971680 268.010345,260.600983   C276.967529,254.778259 283.894287,246.957733 289.527893,237.993286   C313.627319,199.645294 307.386261,147.741425 274.629059,113.623642   C248.680359,86.597107 216.637711,73.541939 179.493408,73.088333   C146.166901,72.681358 112.831490,73.002625 78.500031,73.002625  z" stroke="none" opacity="1.000000" fill="#020100"></path>
<path d="M1713.904297,473.103210   C1672.615479,435.689575 1646.391357,390.184143 1638.030518,335.264740   C1627.666748,267.189606 1644.692383,205.940842 1687.934448,152.638458   C1727.660889,103.669678 1779.068604,73.992645 1842.039795,66.299164   C1901.052856,59.089275 1953.596436,76.075935 2000.572388,111.611084   C2008.254395,117.422119 2015.455933,123.868370 2023.280640,130.353561   C2011.272705,146.537643 1999.606567,162.261307 1987.795532,178.180038   C1948.048828,142.683167 1902.955322,121.570526 1848.627319,128.491531   C1802.852173,134.322983 1765.328613,156.464874 1736.282471,192.124313   C1679.250610,262.140900 1684.518799,357.924072 1749.776367,421.444733   C1809.302246,479.386322 1903.657227,497.543640 1987.953979,419.466492   C1999.614990,435.718689 2011.240723,451.921753 2022.845581,468.095734   C1939.525757,555.471436 1803.810913,552.878357 1713.904297,473.103210  z" stroke="none" opacity="1.000000" fill="url(#goldGradient)"></path>
<path d="M2378.819824,490.851074   C2332.186523,525.570862 2280.206787,538.433350 2223.129150,531.213501   C2124.913086,518.790161 2043.743530,445.942108 2022.619385,349.191681   C2007.167236,278.419189 2022.650757,213.574188 2066.982178,156.300583   C2101.373047,111.869362 2146.238770,82.573021 2201.222412,70.181786   C2262.474854,56.377804 2319.177490,68.341705 2371.037598,103.361069   C2380.668945,109.864738 2389.524170,117.525436 2398.656250,124.754738   C2400.843994,126.486549 2402.706055,128.629272 2404.955322,130.813461   C2393.146729,146.717972 2381.454590,162.465897 2369.642334,178.375229   C2355.933594,165.482513 2341.104492,154.505463 2324.504150,146.181473   C2264.262207,115.974167 2206.252686,121.344933 2152.258789,160.354111   C2102.811279,196.078842 2077.751221,245.612610 2079.403564,306.983978   C2080.420654,344.755676 2094.384521,378.427460 2118.659424,407.431549   C2146.607910,440.824921 2181.995361,461.869843 2225.088135,469.373535   C2261.732178,475.754303 2296.091797,468.469391 2327.906250,450.066071   C2342.659424,441.532043 2356.127197,430.775604 2370.760254,420.622375   C2381.629150,435.757416 2393.319336,452.036438 2405.399658,468.858459   C2396.515869,476.224915 2387.816650,483.438293 2378.819824,490.851074  z" stroke="none" opacity="1.000000" fill="url(#goldGradient)"></path>
<path d="M950.384277,366.586639   C946.652283,361.240906 943.047974,356.242401 939.652039,351.106140   C937.313293,347.568634 934.128357,345.987488 929.993835,345.989471   C913.330200,345.997528 896.666199,345.920990 880.003174,346.026245   C872.783875,346.071869 870.002197,349.323975 870.000061,357.288879   C869.985352,411.945557 869.992310,466.602234 869.992310,521.258911   C869.992310,522.588135 869.992310,523.917419 869.992310,525.619263   C849.682800,525.619263 829.487915,525.619263 808.916626,525.619263   C808.916626,374.845581 808.916626,224.145874 808.916626,73.007812   C810.639893,73.007812 812.272766,73.007812 813.905640,73.007812   C860.230530,73.007812 906.562866,72.477020 952.878479,73.133728   C1020.283447,74.089462 1082.295654,121.458794 1096.406494,188.616821   C1109.753540,252.140076 1076.264771,314.834869 1016.188660,338.779510   C1008.026245,342.032837 1006.857788,347.357574 1012.644897,355.318481   C1044.855469,399.628510 1077.082153,443.926727 1109.303345,488.228973   C1117.235107,499.134857 1125.170288,510.038269 1133.093872,520.950134   C1134.125366,522.370544 1135.095703,523.835266 1136.587158,525.992310   C1134.317139,525.992310 1132.891357,525.992310 1131.465576,525.992310   C1109.636230,525.992310 1087.806274,525.913391 1065.978149,526.074768   C1062.583252,526.099854 1060.661255,524.985229 1058.746948,522.227844   C1022.764648,470.397491 986.671082,418.644409 950.384277,366.586639  M916.499878,297.549500   C926.662292,297.549500 936.825195,297.611115 946.987061,297.536316   C966.459717,297.393066 984.624878,292.599030 1000.345215,280.841034   C1026.735474,261.102325 1039.423706,234.896133 1034.268066,201.832504   C1028.157227,162.643677 994.250854,136.189865 955.552979,134.078720   C930.471375,132.710419 905.267334,133.483856 880.118408,133.514053   C872.380859,133.523346 869.831726,136.648438 869.828735,144.976715   C869.811951,191.957565 869.811951,238.938400 869.828369,285.919250   C869.831482,294.799927 872.525269,297.489288 881.513794,297.535370   C892.842224,297.593445 904.171143,297.549316 916.499878,297.549500  z" stroke="none" opacity="1.000000" fill="url(#goldGradient)"></path>
<path d="M691.967041,482.969818   C688.845825,475.942230 685.703247,469.332184 682.884399,462.586823   C680.904175,457.848267 677.521118,455.585083 672.520203,455.472656   C671.187805,455.442719 669.854431,455.454163 668.521484,455.454163   C600.040344,455.453430 531.558838,455.555115 463.078583,455.317017   C455.075043,455.289215 450.655487,458.104950 447.529510,465.454193   C439.465485,484.413025 430.664429,503.057220 422.335144,521.905457   C421.028564,524.862061 419.646698,526.125854 416.178436,526.090881   C395.858215,525.886108 375.534943,525.990356 354.148376,525.990356   C424.733673,372.887848 495.062775,220.341019 565.861755,66.775009   C636.619080,220.240341 706.930847,372.739197 777.589417,525.990356   C772.767029,525.990356 768.684875,525.990356 764.602783,525.990356   C748.273926,525.990356 731.943420,525.865234 715.617676,526.092041   C712.198792,526.139526 710.733521,524.989746 709.432983,522.002686   C703.793213,509.049286 697.890869,496.210205 691.967041,482.969818  M508.434387,330.876526   C506.877441,334.367157 505.332855,337.863373 503.761444,341.347473   C496.246460,358.009583 488.680817,374.649048 481.223969,391.337097   C477.785736,399.031708 481.317505,404.620209 489.683838,404.999786   C490.348907,405.029968 491.016479,405.005615 491.682892,405.005615   C541.164001,405.005707 590.645142,405.010712 640.126282,404.985535   C641.940796,404.984619 643.819275,404.934021 645.557617,404.482086   C650.657837,403.156067 653.033020,398.708038 651.423218,393.706543   C650.916138,392.131195 650.194092,390.620819 649.513855,389.106140   C624.459351,333.316772 599.377380,277.539734 574.383606,221.723190   C572.682312,217.923828 570.600952,215.023895 566.096619,214.993622   C561.622192,214.963531 559.427429,217.697708 557.702820,221.550125   C541.472839,257.803375 525.118835,294.001099 508.434387,330.876526  z" stroke="none" opacity="1.000000" fill="url(#goldGradient)"></path>
<path d="M2677.086426,68.797211   C2720.759766,77.094482 2758.765625,96.059441 2791.181152,125.706558   C2834.323486,165.164368 2860.393311,213.809387 2867.112061,272.174652   C2874.521484,336.540100 2858.183350,394.559784 2817.384521,444.801666   C2775.081787,496.895020 2720.154541,526.635010 2652.861328,532.126465   C2590.414307,537.222351 2534.160156,520.297363 2486.031494,480.455048   C2425.844971,430.631012 2396.609375,366.069489 2399.819336,287.429779   C2403.897217,187.521179 2475.949707,96.968880 2577.567383,71.618958   C2610.317871,63.448818 2643.428223,62.773758 2677.086426,68.797211  M2800.099121,252.343842   C2791.273193,221.139282 2774.920410,194.469910 2750.976807,172.696640   C2716.594727,141.431290 2675.996582,125.571228 2629.464111,126.962280   C2575.790771,128.566818 2531.812012,150.757309 2498.264893,192.706314   C2445.596924,258.564880 2449.234131,355.285645 2507.421143,415.952271   C2550.431396,460.795410 2603.472168,478.891113 2664.932861,467.914612   C2765.529541,449.948578 2827.908691,349.009674 2800.099121,252.343842  z" stroke="none" opacity="1.000000" fill="url(#goldGradient)"></path>
<path d="M1276.903564,88.817566   C1315.591553,69.540825 1356.242432,62.319763 1398.785889,65.708374   C1459.026489,70.506561 1509.799194,95.611824 1551.058472,139.327179   C1586.224609,176.586929 1607.369873,220.900085 1613.143433,272.099274   C1620.423218,336.654358 1604.124268,394.784424 1563.148560,445.100037   C1520.908203,496.968689 1466.106689,526.605835 1399.033569,532.118103   C1336.616455,537.247742 1280.432251,520.301880 1232.195190,480.603394   C1175.890137,434.265137 1146.191772,374.226440 1145.560059,300.685089   C1145.066406,243.233337 1164.059937,192.674713 1200.554932,148.664047   C1221.534058,123.364372 1247.007446,103.495544 1276.903564,88.817566  M1525.719238,391.230347   C1572.735474,317.152008 1555.890625,226.307343 1496.630859,172.383224   C1462.258057,141.105347 1421.520874,125.509979 1374.985474,126.952606   C1324.243042,128.525665 1281.591064,148.579346 1248.804077,187.381271   C1212.532349,230.307159 1199.434937,280.025635 1211.217041,335.186096   C1227.357544,410.750244 1291.561768,466.589905 1368.743530,470.525238   C1435.107666,473.908997 1487.524902,446.730438 1525.719238,391.230347  z" stroke="none" opacity="1.000000" fill="url(#goldGradient)"></path>
<path d="M79.000015,73.002625   C112.831490,73.002625 146.166901,72.681358 179.493408,73.088333   C216.637711,73.541939 248.680359,86.597107 274.629059,113.623642   C307.386261,147.741425 313.627319,199.645294 289.527893,237.993286   C283.894287,246.957733 276.967529,254.778259 268.010345,260.600983   C264.363434,262.971680 261.946960,265.896973 263.095154,270.523071   C264.190430,274.935822 267.746277,276.264832 271.691132,276.975006   C318.939117,285.480865 357.350037,327.239075 362.173157,374.928253   C366.129028,414.042328 356.013794,448.862640 330.618866,478.877167   C309.338654,504.028381 281.948364,518.839111 249.478043,523.878723   C239.819672,525.377808 229.923798,525.872864 220.133469,525.907776   C167.137070,526.097046 114.139648,525.997498 61.142578,525.997498   C59.322193,525.997498 57.501804,525.997559 55.342438,525.997559   C55.342438,375.089447 55.342438,224.364822 55.342438,73.002625   C62.975124,73.002625 70.737579,73.002625 79.000015,73.002625  M292.664734,425.142914   C293.239410,424.131561 293.827393,423.127472 294.386810,422.107758   C310.895020,392.016113 304.993225,355.988983 279.657867,333.885040   C262.578827,318.984406 241.939117,312.814667 219.836517,312.319916   C189.871307,311.649170 159.879761,312.151184 129.899521,312.165558   C128.738037,312.166138 127.574165,312.301666 126.415543,312.416168   C117.913757,313.256683 115.834595,315.527924 115.831757,324.182373   C115.817451,367.825500 115.817329,411.468597 115.831825,455.111725   C115.834717,463.804016 118.823189,466.826172 127.511330,466.835052   C156.329086,466.864532 185.154785,467.270599 213.962570,466.733795   C246.684891,466.124054 273.839386,454.079437 292.664734,425.142914  M116.840317,136.789062   C116.502563,139.232956 115.875214,141.676300 115.870667,144.120804   C115.806534,178.599655 115.822029,213.078674 115.830360,247.557648   C115.832634,256.961975 118.654419,259.861450 127.958191,259.830963   C144.606644,259.776428 161.256805,259.756195 177.902039,259.473846   C183.361145,259.381256 188.885056,258.940155 194.246857,257.944824   C233.680283,250.624649 256.009216,213.998840 244.058975,176.491821   C235.813126,150.611359 209.905518,132.524155 179.836578,132.048355   C162.018555,131.766403 144.188461,131.803360 126.373848,132.177048   C123.297546,132.241577 120.271637,134.708786 116.840317,136.789062  z" stroke="none" opacity="1.000000" fill="url(#goldGradient)"></path>
<path d="M915.999878,297.549377   C904.171143,297.549316 892.842224,297.593445 881.513794,297.535370   C872.525269,297.489288 869.831482,294.799927 869.828369,285.919250   C869.811951,238.938400 869.811951,191.957565 869.828735,144.976715   C869.831726,136.648438 872.380859,133.523346 880.118408,133.514053   C905.267334,133.483856 930.471375,132.710419 955.552979,134.078720   C994.250854,136.189865 1028.157227,162.643677 1034.268066,201.832504   C1039.423706,234.896133 1026.735474,261.102325 1000.345215,280.841034   C984.624878,292.599030 966.459717,297.393066 946.987061,297.536316   C936.825195,297.611115 926.662292,297.549500 915.999878,297.549377  M892.504395,142.008194   C887.738831,142.008194 882.973267,142.008194 878.289062,142.008194   C878.289062,191.311127 878.289062,240.035889 878.289062,288.991180   C904.203003,288.991180 929.836914,289.044708 955.470032,288.923431   C958.676025,288.908264 961.910889,288.121521 965.075806,287.432495   C982.237488,283.696381 996.614319,275.201904 1008.381714,262.147156   C1018.864136,250.517960 1025.660156,237.013901 1026.834961,221.476059   C1028.630005,197.733337 1020.701904,177.587616 1002.347168,161.778122   C987.093262,148.639450 969.458740,142.197311 949.483215,142.039688   C930.824341,141.892426 912.163452,142.008194 892.504395,142.008194  z" stroke="none" opacity="1.000000" fill="#060502"></path>
<path d="M508.617493,330.545654   C525.118835,294.001099 541.472839,257.803375 557.702820,221.550125   C559.427429,217.697708 561.622192,214.963531 566.096619,214.993622   C570.600952,215.023895 572.682312,217.923828 574.383606,221.723190   C599.377380,277.539734 624.459351,333.316772 649.513855,389.106140   C650.194092,390.620819 650.916138,392.131195 651.423218,393.706543   C653.033020,398.708038 650.657837,403.156067 645.557617,404.482086   C643.819275,404.934021 641.940796,404.984619 640.126282,404.985535   C590.645142,405.010712 541.164001,405.005707 491.682892,405.005615   C491.016479,405.005615 490.348907,405.029968 489.683838,404.999786   C481.317505,404.620209 477.785736,399.031708 481.223969,391.337097   C488.680817,374.649048 496.246460,358.009583 503.761444,341.347473   C505.332855,337.863373 506.877441,334.367157 508.617493,330.545654  M574.441040,242.961777   C571.782166,236.896057 569.123230,230.830338 566.010132,223.728439   C539.682373,282.138519 513.885498,339.370758 487.980652,396.842590   C540.384705,396.842590 591.942810,396.842590 643.737976,396.842590   C620.745850,345.604156 597.850586,294.581635 574.441040,242.961777  z" stroke="none" opacity="1.000000" fill="#030301"></path>
<path d="M2800.208984,252.735596   C2827.908691,349.009674 2765.529541,449.948578 2664.932861,467.914612   C2603.472168,478.891113 2550.431396,460.795410 2507.421143,415.952271   C2449.234131,355.285645 2445.596924,258.564880 2498.264893,192.706314   C2531.812012,150.757309 2575.790771,128.566818 2629.464111,126.962280   C2675.996582,125.571228 2716.594727,141.431290 2750.976807,172.696640   C2774.920410,194.469910 2791.273193,221.139282 2800.208984,252.735596  M2688.011475,144.526749   C2673.441406,138.742691 2658.128418,135.656860 2642.650146,135.287750   C2628.777344,134.956909 2614.577881,135.652100 2600.999023,138.319611   C2573.065674,143.806885 2548.024658,156.274628 2526.563477,175.116211   C2511.867188,188.018402 2499.306396,202.880310 2489.992676,220.242126   C2475.828857,246.644882 2468.102051,274.616669 2470.069336,304.789795   C2470.651611,313.720856 2471.506592,322.690948 2473.090820,331.489410   C2478.182129,359.768494 2491.036621,384.480560 2509.724854,406.000122   C2520.476074,418.380219 2532.882080,429.078094 2547.079834,437.691132   C2576.992920,455.837891 2609.023926,464.606354 2644.160400,462.117218   C2660.454102,460.962952 2676.048096,457.568634 2691.375244,452.072205   C2712.091553,444.643127 2730.083984,432.879730 2746.168457,418.183258   C2758.748535,406.688995 2768.880127,393.211823 2777.429932,378.342834   C2788.882324,358.426056 2795.849854,337.082733 2797.713867,314.468262   C2799.152100,297.022003 2798.418945,279.447052 2794.136475,262.083466   C2786.962891,232.998657 2773.273438,207.651230 2752.526123,186.228241   C2745.484619,178.957306 2737.661133,172.304199 2729.535645,166.254410   C2717.124268,157.013229 2703.680420,149.429611 2688.011475,144.526749  z" stroke="none" opacity="1.000000" fill="#040301"></path>
<path d="M1525.499878,391.517700   C1487.524902,446.730438 1435.107666,473.908997 1368.743530,470.525238   C1291.561768,466.589905 1227.357544,410.750244 1211.217041,335.186096   C1199.434937,280.025635 1212.532349,230.307159 1248.804077,187.381271   C1281.591064,148.579346 1324.243042,128.525665 1374.985474,126.952606   C1421.520874,125.509979 1462.258057,141.105347 1496.630859,172.383224   C1555.890625,226.307343 1572.735474,317.152008 1525.499878,391.517700  M1540.997803,266.492340   C1536.957520,254.179001 1534.043945,241.344482 1528.640137,229.661789   C1517.695190,205.999298 1501.452026,186.288620 1480.755981,170.112946   C1453.856934,149.088989 1423.357422,137.605072 1389.605469,135.254303   C1377.218506,134.391586 1364.454712,135.262558 1352.183716,137.286789   C1334.429199,140.215591 1317.423096,146.122620 1301.569092,155.016190   C1276.328491,169.175552 1255.863281,188.239304 1240.548462,212.888855   C1223.225220,240.770905 1214.374512,270.892914 1216.084229,303.804657   C1216.565552,313.068542 1217.462036,322.379761 1219.100342,331.501831   C1224.178589,359.778809 1237.035767,384.494537 1255.732910,406.009949   C1266.488647,418.386902 1278.892212,429.086243 1293.089111,437.699127   C1323.002197,455.846741 1355.040161,464.593597 1390.171997,462.116486   C1406.466431,460.967560 1422.060547,457.567535 1437.386108,452.070343   C1457.773315,444.757629 1475.616577,433.309052 1491.447998,418.859314   C1509.297852,402.567444 1522.955322,383.155762 1532.083374,360.607849   C1539.322021,342.727356 1544.052612,324.391754 1543.997314,304.987000   C1543.979858,298.849152 1544.378418,292.680511 1543.889526,286.581818   C1543.373169,280.140930 1542.025024,273.766724 1540.997803,266.492340  z" stroke="none" opacity="1.000000" fill="#040301"></path>
<path d="M292.458954,425.444366   C273.839386,454.079437 246.684891,466.124054 213.962570,466.733795   C185.154785,467.270599 156.329086,466.864532 127.511330,466.835052   C118.823189,466.826172 115.834717,463.804016 115.831825,455.111725   C115.817329,411.468597 115.817451,367.825500 115.831757,324.182373   C115.834595,315.527924 117.913757,313.256683 126.415543,312.416168   C127.574165,312.301666 128.738037,312.166138 129.899521,312.165558   C159.879761,312.151184 189.871307,311.649170 219.836517,312.319916   C241.939117,312.814667 262.578827,318.984406 279.657867,333.885040   C304.993225,355.988983 310.895020,392.016113 294.386810,422.107758   C293.827393,423.127472 293.239410,424.131561 292.458954,425.444366  M164.500000,457.994141   C183.163010,457.994141 201.826370,458.053650 220.488754,457.945770   C224.399780,457.923187 228.421173,457.757294 232.196960,456.848389   C250.299347,452.490753 266.239105,444.451111 278.650085,429.969543   C288.020660,419.035645 293.640472,406.531006 294.855591,392.431305   C296.631683,371.821838 289.963440,354.294556 274.017639,340.433014   C259.591156,327.892212 242.657120,321.810944 223.995758,321.169739   C203.189209,320.454834 182.339157,321.005859 161.508041,321.005859   C150.510208,321.005859 139.512360,320.997589 128.514557,321.015961   C127.078110,321.018341 125.641899,321.157654 124.291092,321.229034   C124.291092,366.976105 124.291092,412.374023 124.291092,457.994141   C137.550171,457.994141 150.525085,457.994141 164.500000,457.994141  z" stroke="none" opacity="1.000000" fill="#040401"></path>
<path d="M117.031387,136.427612   C120.271637,134.708786 123.297546,132.241577 126.373848,132.177048   C144.188461,131.803360 162.018555,131.766403 179.836578,132.048355   C209.905518,132.524155 235.813126,150.611359 244.058975,176.491821   C256.009216,213.998840 233.680283,250.624649 194.246857,257.944824   C188.885056,258.940155 183.361145,259.381256 177.902039,259.473846   C161.256805,259.756195 144.606644,259.776428 127.958191,259.830963   C118.654419,259.861450 115.832634,256.961975 115.830360,247.557648   C115.822029,213.078674 115.806534,178.599655 115.870667,144.120804   C115.875214,141.676300 116.502563,139.232956 117.031387,136.427612  M202.478134,247.052017   C227.247345,238.977081 243.077957,212.833710 238.017532,186.917007   C233.800491,165.319748 220.314804,151.604065 200.433868,144.257385   C192.702225,141.400299 183.967560,140.477921 175.636688,140.185135   C158.553802,139.584732 141.435028,140.004883 124.226501,140.004883   C124.226501,177.194199 124.226501,213.919525 124.226501,251.373245   C150.244308,249.178375 176.302338,254.433899 202.478134,247.052017  z" stroke="none" opacity="1.000000" fill="#040301"></path>
<path d="M893.003906,142.008194   C912.163452,142.008194 930.824341,141.892426 949.483215,142.039688   C969.458740,142.197311 987.093262,148.639450 1002.347168,161.778122   C1020.701904,177.587616 1028.630005,197.733337 1026.834961,221.476059   C1025.660156,237.013901 1018.864136,250.517960 1008.381714,262.147156   C996.614319,275.201904 982.237488,283.696381 965.075806,287.432495   C961.910889,288.121521 958.676025,288.908264 955.470032,288.923431   C929.836914,289.044708 904.203003,288.991180 878.289062,288.991180   C878.289062,240.035889 878.289062,191.311127 878.289062,142.008194   C882.973267,142.008194 887.738831,142.008194 893.003906,142.008194  z" stroke="none" opacity="000000" fill="#FFFFFF00"></path>
<path d="M574.698181,243.260452   C597.850586,294.581635 620.745850,345.604156 643.737976,396.842590   C591.942810,396.842590 540.384705,396.842590 487.980652,396.842590   C513.885498,339.370758 539.682373,282.138519 566.010132,223.728439   C569.123230,230.830338 571.782166,236.896057 574.698181,243.260452  z" stroke="none" opacity="000000" fill="#FFFFFF00"></path>
<path d="M2688.353516,144.747650   C2703.680420,149.429611 2717.124268,157.013229 2729.535645,166.254410   C2737.661133,172.304199 2745.484619,178.957306 2752.526123,186.228241   C2773.273438,207.651230 2786.962891,232.998657 2794.136475,262.083466   C2798.418945,279.447052 2799.152100,297.022003 2797.713867,314.468262   C2795.849854,337.082733 2788.882324,358.426056 2777.429932,378.342834   C2768.880127,393.211823 2758.748535,406.688995 2746.168457,418.183258   C2730.083984,432.879730 2712.091553,444.643127 2691.375244,452.072205   C2676.048096,457.568634 2660.454102,460.962952 2644.160400,462.117218   C2609.023926,464.606354 2576.992920,455.837891 2547.079834,437.691132   C2532.882080,429.078094 2520.476074,418.380219 2509.724854,406.000122   C2491.036621,384.480560 2478.182129,359.768494 2473.090820,331.489410   C2471.506592,322.690948 2470.651611,313.720856 2470.069336,304.789795   C2468.102051,274.616669 2475.828857,246.644882 2489.992676,220.242126   C2499.306396,202.880310 2511.867188,188.018402 2526.563477,175.116211   C2548.024658,156.274628 2573.065674,143.806885 2600.999023,138.319611   C2614.577881,135.652100 2628.777344,134.956909 2642.650146,135.287750   C2658.128418,135.656860 2673.441406,138.742691 2688.353516,144.747650  z" stroke="none" opacity="000000" fill="#FFFFFF00"></path>
<path d="M1541.019043,266.927856   C1542.025024,273.766724 1543.373169,280.140930 1543.889526,286.581818   C1544.378418,292.680511 1543.979858,298.849152 1543.997314,304.987000   C1544.052612,324.391754 1539.322021,342.727356 1532.083374,360.607849   C1522.955322,383.155762 1509.297852,402.567444 1491.447998,418.859314   C1475.616577,433.309052 1457.773315,444.757629 1437.386108,452.070343   C1422.060547,457.567535 1406.466431,460.967560 1390.171997,462.116486   C1355.040161,464.593597 1323.002197,455.846741 1293.089111,437.699127   C1278.892212,429.086243 1266.488647,418.386902 1255.732910,406.009949   C1237.035767,384.494537 1224.178589,359.778809 1219.100342,331.501831   C1217.462036,322.379761 1216.565552,313.068542 1216.084229,303.804657   C1214.374512,270.892914 1223.225220,240.770905 1240.548462,212.888855   C1255.863281,188.239304 1276.328491,169.175552 1301.569092,155.016190   C1317.423096,146.122620 1334.429199,140.215591 1352.183716,137.286789   C1364.454712,135.262558 1377.218506,134.391586 1389.605469,135.254303   C1423.357422,137.605072 1453.856934,149.088989 1480.755981,170.112946   C1501.452026,186.288620 1517.695190,205.999298 1528.640137,229.661789   C1534.043945,241.344482 1536.957520,254.179001 1541.019043,266.927856  z" stroke="none" opacity="000000" fill="#FFFFFF00"></path>
<path d="M164.000000,457.994141   C150.525085,457.994141 137.550171,457.994141 124.291092,457.994141   C124.291092,412.374023 124.291092,366.976105 124.291092,321.229034   C125.641899,321.157654 127.078110,321.018341 128.514557,321.015961   C139.512360,320.997589 150.510208,321.005859 161.508041,321.005859   C182.339157,321.005859 203.189209,320.454834 223.995758,321.169739   C242.657120,321.810944 259.591156,327.892212 274.017639,340.433014   C289.963440,354.294556 296.631683,371.821838 294.855591,392.431305   C293.640472,406.531006 288.020660,419.035645 278.650085,429.969543   C266.239105,444.451111 250.299347,452.490753 232.196960,456.848389   C228.421173,457.757294 224.399780,457.923187 220.488754,457.945770   C201.826370,458.053650 183.163010,457.994141 164.000000,457.994141  z" stroke="none" opacity="000000" fill="#FFFFFF00"></path>
<path d="M202.184311,247.339813   C176.302338,254.433899 150.244308,249.178375 124.226501,251.373245   C124.226501,213.919525 124.226501,177.194199 124.226501,140.004883   C141.435028,140.004883 158.553802,139.584732 175.636688,140.185135   C183.967560,140.477921 192.702225,141.400299 200.433868,144.257385   C220.314804,151.604065 233.800491,165.319748 238.017532,186.917007   C243.077957,212.833710 227.247345,238.977081 202.184311,247.339813  z" stroke="none" opacity="000000" fill="#FFFFFF00"></path>
</svg>