<svg preserveAspectRatio="xMidYMid meet" viewBox="0 0 1001.000000 1001.000000" height="1001.000000pt" width="1001.000000pt" xmlns="http://www.w3.org/2000/svg" version="1.0">

<g stroke="none" fill="#403863" transform="translate(0.000000,1001.000000) scale(0.100000,-0.100000)">
<path d="M4760 9483 c-994 -57 -1922 -429 -2671 -1071 -1291 -1105 -1842
-2831 -1434 -4487 267 -1082 935 -2029 1870 -2649 199 -132 274 -176 490 -283
521 -260 1075 -410 1674 -454 205 -15 625 -7 811 16 1041 124 1942 559 2669
1286 769 769 1219 1751 1302 2839 15 195 6 647 -15 830 -125 1053 -578 1974
-1332 2710 -770 751 -1754 1188 -2839 1260 -139 9 -395 11 -525 3z m710 -277
c815 -97 1538 -397 2172 -902 463 -370 873 -875 1139 -1405 228 -455 375 -973
425 -1499 22 -231 14 -722 -15 -936 -176 -1284 -890 -2383 -1990 -3061 -492
-304 -1054 -501 -1661 -584 -198 -26 -663 -37 -873 -20 -803 67 -1537 341
-2172 813 -1118 830 -1751 2127 -1712 3508 31 1079 441 2053 1187 2824 723
746 1664 1190 2705 1275 161 14 635 5 795 -13z"></path>
<path d="M4720 9034 c-400 -36 -705 -98 -1034 -211 -478 -164 -933 -422 -1306
-742 -111 -95 -349 -332 -449 -446 -459 -529 -778 -1187 -911 -1880 -43 -226
-61 -404 -67 -665 -6 -274 4 -456 38 -695 231 -1610 1437 -2945 3017 -3339
836 -208 1688 -153 2492 161 255 99 583 276 815 438 362 252 736 623 996 987
790 1104 966 2567 462 3838 -441 1112 -1361 1983 -2488 2355 -266 88 -515 143
-810 181 -115 15 -650 27 -755 18z m560 -74 c1157 -82 2200 -649 2906 -1581
445 -588 716 -1293 784 -2044 13 -144 13 -549 -1 -695 -72 -800 -361 -1519
-865 -2150 -138 -173 -431 -466 -604 -604 -679 -542 -1471 -841 -2314 -875
-420 -16 -795 22 -1181 121 -1410 360 -2520 1484 -2870 2903 -81 330 -109 574
-109 955 0 316 11 456 60 720 184 999 736 1877 1564 2489 608 450 1341 715
2115 764 120 8 381 6 515 -3z"></path>
<path d="M4843 8238 c-8 -10 -109 -261 -220 -546 -4 -10 7 -12 48 -10 53 3 54
3 70 47 9 25 25 48 36 52 10 4 63 8 118 10 l99 4 26 -45 c24 -41 30 -45 69
-48 24 -2 47 0 52 5 8 8 -249 505 -274 531 -11 11 -16 11 -24 0z m66 -274 c23
-42 40 -78 39 -79 -7 -6 -148 -12 -148 -6 0 5 10 32 49 134 6 15 12 27 15 27
2 0 23 -34 45 -76z"></path>
<path d="M5396 8231 c-20 -31 -177 -514 -170 -521 8 -8 53 -14 80 -11 6 1 30
64 54 141 24 77 47 137 51 133 4 -5 24 -71 44 -148 42 -155 50 -175 69 -175 7
0 53 63 102 140 49 76 92 139 96 140 4 0 9 -69 10 -152 l3 -153 40 -6 c22 -4
42 -4 45 -1 3 4 3 131 0 282 -5 248 -7 275 -22 278 -12 2 -45 -40 -119 -150
-56 -84 -109 -161 -117 -171 -15 -16 -19 -6 -59 130 -24 81 -50 172 -58 201
-14 48 -35 66 -49 43z"></path>
<path d="M4320 8173 c-38 -14 -39 -22 -14 -111 13 -48 24 -94 24 -103 0 -12
-30 -24 -117 -47 -65 -17 -121 -28 -124 -24 -4 4 -17 49 -29 100 -12 52 -29
96 -36 99 -23 9 -84 -17 -84 -35 1 -27 127 -493 137 -503 9 -9 79 6 87 20 3 4
-7 53 -21 109 -15 56 -24 104 -21 107 12 13 231 66 238 58 4 -4 17 -48 30 -98
12 -49 27 -95 32 -101 14 -19 88 4 88 27 0 14 -101 408 -126 492 -5 17 -33 21
-64 10z"></path>
<path d="M6076 7826 c-80 -124 -146 -230 -146 -236 0 -10 58 -40 78 -40 5 0
45 57 88 128 l79 127 6 -166 c6 -162 10 -189 29 -189 5 0 64 51 132 114 67 63
124 113 126 112 1 -2 -13 -68 -33 -146 -20 -79 -32 -146 -28 -150 19 -16 75
-32 82 -24 9 10 121 498 121 527 0 37 -38 12 -181 -118 -81 -74 -150 -135
-154 -135 -3 0 -6 51 -6 113 -2 202 -12 301 -30 305 -12 2 -59 -63 -163 -222z"></path>
<path d="M3364 7812 c-144 -50 -222 -200 -180 -344 20 -69 86 -146 153 -179
123 -58 291 -5 378 120 l28 41 -48 82 c-69 121 -61 117 -144 69 -39 -23 -71
-47 -71 -54 0 -7 9 -23 19 -36 18 -23 29 -24 72 -7 11 5 22 -2 33 -19 17 -26
17 -28 -6 -52 -30 -33 -94 -63 -137 -63 -51 0 -118 37 -148 80 -81 123 5 279
153 280 44 0 54 12 54 66 0 39 -70 46 -156 16z"></path>
<path d="M6766 7491 c-80 -115 -146 -216 -146 -225 0 -14 248 -196 268 -196
11 0 52 52 52 67 0 4 -35 32 -77 61 -131 89 -122 73 -79 137 l37 56 27 -18
c15 -10 54 -36 86 -58 l58 -39 24 29 c13 17 24 35 24 42 0 7 -33 35 -74 63
-41 27 -77 54 -80 58 -3 5 6 24 20 43 14 19 29 41 34 49 7 11 22 5 81 -35 143
-97 124 -90 153 -58 14 15 26 33 26 40 0 13 -257 193 -276 193 -7 0 -78 -94
-158 -209z"></path>
<path d="M2851 7464 c-17 -14 -31 -29 -31 -34 0 -14 321 -405 336 -408 16 -4
74 35 74 49 0 14 -329 419 -340 419 -5 0 -22 -12 -39 -26z"></path>
<path d="M7202 7157 c-100 -100 -182 -187 -182 -193 0 -12 52 -64 65 -64 5 0
41 32 80 70 l71 70 29 -30 29 -31 -37 -112 -37 -112 39 -39 c46 -46 44 -49 86
95 l27 96 67 -4 c76 -5 117 14 151 69 55 90 37 151 -82 274 -50 52 -98 94
-107 94 -9 0 -98 -82 -199 -183z m314 -74 c6 -23 -10 -61 -35 -80 -35 -27 -71
-15 -129 42 l-57 54 55 56 54 55 54 -52 c29 -29 55 -63 58 -75z"></path>
<path d="M4928 7270 l-30 -30 -124 0 c-123 0 -124 0 -156 -29 l-33 -29 0 -117
0 -117 33 -29 c32 -29 33 -29 157 -29 l125 0 0 -446 0 -446 30 -30 c27 -26 36
-30 67 -25 71 12 67 -12 73 490 l5 452 133 5 c131 5 134 5 158 33 22 26 24 36
24 138 0 61 -5 119 -10 130 -21 38 -62 49 -185 49 l-117 0 -28 30 c-20 21 -37
30 -60 30 -22 0 -41 -9 -62 -30z"></path>
<path d="M2560 7188 c-41 -27 -170 -160 -170 -175 0 -16 368 -357 389 -361 19
-3 150 134 176 185 19 36 19 106 1 142 -27 52 -94 79 -152 62 l-32 -9 -4 55
c-7 76 -45 115 -120 120 -43 3 -60 0 -88 -19z m113 -106 c30 -26 22 -73 -20
-114 l-38 -37 -48 46 -48 46 33 34 c51 54 80 60 121 25z m172 -147 c35 -35 31
-60 -19 -113 l-44 -46 -49 45 -49 46 30 35 c55 63 92 73 131 33z"></path>
<path d="M3882 6564 l-22 -15 0 -1330 c0 -1316 0 -1329 20 -1349 19 -19 33
-20 230 -20 211 0 211 0 235 25 l25 24 0 551 0 550 635 0 635 0 0 -549 c0
-540 0 -549 21 -575 l20 -26 214 0 214 0 20 26 21 27 0 1312 0 1312 -21 27
-20 26 -214 0 -214 0 -20 -26 c-21 -26 -21 -36 -21 -555 l0 -529 -635 0 -635
0 0 529 c0 519 0 529 -21 555 l-20 26 -213 0 c-175 0 -215 -3 -234 -16z"></path>
<path d="M2003 5955 l-23 -16 0 -879 0 -880 25 -16 c36 -24 720 -16 810 10
217 61 362 210 395 406 31 185 -65 362 -249 459 l-72 38 50 32 c71 46 149 134
185 211 29 60 31 73 31 176 0 107 -1 112 -38 186 -62 127 -180 219 -339 265
-42 12 -128 16 -403 20 -312 4 -352 3 -372 -12z m694 -323 c125 -66 151 -252
50 -360 -52 -56 -89 -66 -269 -70 l-168 -4 0 232 0 232 173 -4 c154 -3 176 -6
214 -26z m32 -747 c97 -53 143 -145 122 -241 -16 -70 -60 -127 -123 -158 -50
-25 -58 -26 -235 -26 l-183 0 0 231 0 231 183 -4 c181 -3 182 -3 236 -33z"></path>
<path d="M7444 5822 c-7 -4 -89 -207 -183 -451 -94 -244 -175 -451 -180 -459
-11 -19 -9 -24 -141 483 -56 215 -105 394 -109 398 -4 4 -66 6 -137 5 -120 -3
-129 -4 -132 -23 -2 -19 396 -1454 418 -1502 8 -19 18 -23 54 -23 l44 0 90
228 c49 125 138 352 197 505 60 152 112 277 116 277 4 0 74 -168 154 -372 81
-205 171 -431 199 -503 l52 -130 49 0 50 0 212 755 c117 415 210 763 207 773
-5 15 -20 17 -134 17 -113 0 -130 -2 -139 -17 -5 -10 -57 -207 -115 -438 -124
-486 -115 -455 -126 -435 -4 8 -83 209 -175 445 -91 237 -173 440 -181 453
-15 22 -65 31 -90 14z"></path>
<path d="M1980 3735 l0 -45 618 2 617 3 3 43 3 42 -620 0 -621 0 0 -45z"></path>
<path d="M6870 3735 l0 -45 618 2 617 3 3 43 3 42 -620 0 -621 0 0 -45z"></path>
<path d="M5794 3420 c-34 -13 -64 -59 -64 -97 0 -25 8 -43 30 -65 26 -25 37
-29 69 -26 34 3 38 1 30 -14 -10 -19 -62 -58 -78 -58 -14 0 -15 -37 -1 -45 16
-10 87 33 114 67 91 120 21 287 -100 238z m68 -57 c24 -21 23 -55 -3 -79 -19
-17 -23 -17 -47 -3 -36 20 -41 61 -10 83 28 20 37 20 60 -1z"></path>
<path d="M4866 3399 c-24 -19 -26 -23 -13 -36 12 -12 19 -13 36 -3 12 6 34 10
49 8 50 -6 41 -45 -32 -141 -37 -47 -66 -91 -66 -97 0 -6 36 -10 96 -10 93 0
95 1 92 23 -3 19 -10 22 -51 25 l-48 3 29 37 c77 98 89 146 47 187 -32 33
-100 35 -139 4z"></path>
<path d="M5163 3405 c-29 -20 -45 -72 -44 -145 0 -74 21 -117 68 -136 97 -41
169 53 148 193 -10 65 -49 103 -107 103 -24 0 -53 -7 -65 -15z m104 -65 c18
-36 16 -121 -3 -148 -26 -38 -66 -26 -82 23 -14 41 -10 102 9 137 15 27 60 20
76 -12z"></path>
<path d="M5477 3400 c-34 -27 -50 -80 -45 -151 5 -66 27 -105 73 -128 25 -12
35 -12 68 0 54 19 77 63 77 147 0 66 -9 92 -43 130 -27 29 -94 30 -130 2z m97
-49 c13 -14 18 -37 18 -79 0 -72 -14 -102 -47 -102 -35 0 -55 35 -55 100 0 87
42 127 84 81z"></path>
<path d="M4200 3290 l0 -90 55 0 c42 0 55 3 55 15 0 11 -11 15 -40 15 -33 0
-40 3 -40 20 0 16 7 20 35 20 24 0 35 5 35 15 0 10 -11 15 -35 15 -31 0 -35 3
-35 25 0 23 4 25 40 25 29 0 40 4 40 15 0 12 -13 15 -55 15 l-55 0 0 -90z"></path>
<path d="M4382 3368 c-7 -7 -12 -25 -12 -40 0 -22 9 -33 41 -54 37 -23 40 -27
26 -41 -12 -12 -19 -13 -37 -3 -25 13 -35 8 -27 -14 8 -21 47 -29 80 -17 22 9
27 17 27 46 0 30 -5 37 -41 55 -43 22 -48 46 -8 43 13 -1 31 1 39 3 12 5 12 8
-4 20 -24 17 -68 18 -84 2z"></path>
<path d="M4527 3373 c-14 -13 -6 -23 18 -23 24 0 25 -2 25 -75 0 -59 3 -75 15
-75 11 0 15 17 17 73 3 66 5 72 26 75 12 2 22 10 22 18 0 10 -14 14 -58 14
-32 0 -62 -3 -65 -7z"></path>
<path d="M4691 3231 c-15 -10 -8 -41 9 -41 15 0 25 29 14 40 -5 5 -15 5 -23 1z"></path>
<path d="M6312 2875 c-67 -19 -84 -28 -134 -73 -52 -47 -71 -86 -71 -147 0
-60 19 -101 67 -143 49 -43 121 -56 225 -42 89 12 126 7 159 -23 43 -40 20
-113 -45 -138 -13 -5 -55 -12 -94 -15 l-69 -7 0 -52 c0 -46 3 -53 23 -59 73
-19 193 15 262 76 79 69 104 154 70 235 -20 48 -41 70 -90 96 -34 18 -53 21
-135 18 -206 -7 -196 -8 -224 18 -30 28 -33 57 -10 89 23 34 53 45 129 51 l70
6 0 60 0 60 -40 2 c-22 1 -64 -4 -93 -12z"></path>
<path d="M3400 2874 c0 -3 -25 -154 -55 -337 -31 -182 -55 -343 -53 -357 2
-13 10 -26 19 -28 10 -2 86 63 188 160 95 90 177 165 182 167 7 2 8 -13 5 -40
-3 -24 -11 -133 -17 -241 -12 -203 -8 -235 26 -222 13 5 467 527 473 544 5 13
-94 61 -110 54 -7 -3 -69 -75 -138 -159 -69 -84 -127 -152 -129 -149 -2 2 2
98 9 213 7 115 10 216 7 225 -4 9 -14 16 -23 16 -8 0 -86 -67 -172 -150 -87
-82 -158 -145 -160 -140 -2 5 13 95 32 200 20 106 33 196 30 201 -14 23 -114
61 -114 43z"></path>
<path d="M5690 2589 c-101 -33 -188 -63 -193 -68 -11 -11 193 -661 208 -661
17 0 399 121 408 129 7 7 -20 98 -32 105 -4 3 -71 -16 -150 -40 -78 -25 -144
-44 -145 -42 -8 9 -53 157 -50 161 3 3 59 22 125 43 117 37 121 39 116 64 -11
51 -27 80 -44 80 -10 0 -67 -16 -128 -35 -60 -19 -110 -33 -111 -32 -3 3 -44
143 -44 150 0 3 66 26 146 52 145 46 146 47 141 73 -11 54 -26 82 -44 81 -10
-1 -101 -28 -203 -60z"></path>
<path d="M4335 2510 c-3 -6 -35 -157 -69 -335 -70 -364 -71 -345 13 -353 41
-4 50 -1 54 14 4 11 31 152 62 314 31 162 59 305 62 317 6 25 -13 38 -73 48
-27 4 -44 2 -49 -5z"></path>
<path d="M4694 2459 c-7 -13 3 -562 12 -647 l6 -53 61 3 61 3 -2 140 c-1 77
-5 175 -9 219 -3 49 -2 77 4 75 5 -2 104 -101 219 -219 135 -139 216 -215 229
-215 19 0 20 5 16 196 -2 107 -6 265 -10 350 l-6 154 -64 3 -64 3 7 -218 7
-218 -218 218 c-120 119 -223 217 -230 217 -6 0 -15 -5 -19 -11z"></path>
</g>
</svg>
