<svg viewBox="0 0 792 612" xmlns="http://www.w3.org/2000/svg" data-name="Layer 1" id="Layer_1"><defs><style>.cls-1,.cls-2{fill-rule:evenodd;}.cls-2{fill:#ee3539;}</style></defs><path d="M499.09,351.24l.85,41.15,105.86-.23c17.06-.06,30-.81,39-2.39q47.1-8.29,67-47.57,13.13-26.29,13.11-65.05,0-46.54-20.07-75.89a83.37,83.37,0,0,0-38.72-30.64c-16.22-6.43-37.21-9.32-62.92-9.67l-64-.85.91,42H597q36.59,0,53.62,17.61,14.13,14.55,14.1,52.86,0,51.18-21.94,67.26C632.51,347.29,616.56,351,595,351Z" class="cls-1"></path><path d="M340.42,351.22H501v41.17H288.2V330.61q-.57-38.94,20.66-59.38A50.48,50.48,0,0,1,330.59,259c7.89-2.05,20.19-3,37-3h40.16c13.46,0,23.11-1.58,29-4.75q13.11-7.2,13.13-21.5c0-10.4-4.12-18.06-12.26-22.95-6.12-3.62-16.09-5.46-29.88-5.46H292.15V160.1H418.74q47.17,0,65.92,14.82a55.89,55.89,0,0,1,16.82,22.53,75.86,75.86,0,0,1,6,30.35q0,20.25-7.38,35.85T479.6,286.53q-18.9,10.53-57.26,10.54H387.57c-12.34,0-21.57.74-27.6,2.21s-10.56,4-13.42,7.68q-5.81,5.76-6.13,23.65Z" class="cls-2"></path><path d="M255.63,351v41l-69.43.32c-17,.09-30-.81-39-2.39q-47.1-8.34-67-47.78-13.11-26.38-13.11-65.32,0-46.78,20.06-76.22a83.24,83.24,0,0,1,38.73-30.78q24.36-9.72,62.94-9.72H295.41v41.32H195q-36.58,0-53.65,17.68c-9.38,9.75-14.07,27.5-14.07,53.1q0,51.42,21.94,67.53Q164.63,351,197.05,351Z" class="cls-1"></path><path d="M121.33,443.45v8.18H101.78a55.91,55.91,0,0,1-8.53-.48q-10.31-1.63-14.65-9.44a26.36,26.36,0,0,1-2.88-12.93q0-9.24,4.38-15.07a18,18,0,0,1,8.49-6.09c3.55-1.3,8.12-1.92,13.75-1.92h19v8.16H103.7c-5.33,0-9.24,1.18-11.73,3.51-2,1.93-3.06,5.44-3.06,10.5,0,6.77,1.59,11.24,4.77,13.36,2.25,1.49,5.76,2.22,10.49,2.22Z" class="cls-1"></path><path d="M152.61,405.4a42.72,42.72,0,0,1,14.77,2.33c5,1.9,8.51,5,10.5,9.41a28.86,28.86,0,0,1,2.39,12.18,24.37,24.37,0,0,1-2.91,12.14,18.84,18.84,0,0,1-11,8.62,41.63,41.63,0,0,1-12.84,1.82A43.25,43.25,0,0,1,137,449a18.12,18.12,0,0,1-8.94-7.59A23.7,23.7,0,0,1,125,428.86q0-13.1,7.95-18.69c4.51-3.14,11-4.72,19.69-4.77m.09,7.73q-8.22,0-11.83,4.4c-1.85,2.3-2.78,6-2.78,11,0,5.39,1.15,9.34,3.54,11.88s6,3.74,11.12,3.74c4.9,0,8.54-1.27,10.9-3.78s3.5-6.44,3.5-11.74c0-4.79-1-8.45-2.85-11C162.1,414.67,158.22,413.15,152.7,413.13Z" class="cls-1"></path><path d="M180.55,451.63l23.2-45.93h13.73l23.21,45.93h-14L221.28,441H200l-5.4,10.63Zm30.1-34.9-8,16.08h15.94Z" class="cls-1"></path><path d="M246.56,451.62v-8.18h25.55c4.09,0,6.87-.31,8.23-1a4.63,4.63,0,0,0,3-4.35c0-2.21-1.17-3.84-3.46-4.87a16.36,16.36,0,0,0-6.28-.88H263.16c-6.33,0-10.91-.93-13.7-2.84a12.92,12.92,0,0,1-4.12-4.46,12.33,12.33,0,0,1-1.45-5.79,13.23,13.23,0,0,1,3.43-8.84c2.26-2.6,5.85-4.08,10.79-4.52q2.5-.19,7.49-.19h27.79v8.17h-25.1a47.36,47.36,0,0,0-7.46.41,4.28,4.28,0,0,0-3.79,4.66,4.37,4.37,0,0,0,3.18,4.45,22.58,22.58,0,0,0,7.07.78h8.95a40.62,40.62,0,0,1,10.31,1q6,1.65,8.18,5.78a14.6,14.6,0,0,1,1.79,7.15,12.82,12.82,0,0,1-2.32,7.51q-3.27,4.69-9.91,5.61a77.22,77.22,0,0,1-9.59.43Z" class="cls-1"></path><polygon points="317.1 413.86 299.25 413.86 299.25 405.69 347.57 405.69 347.57 413.86 328.99 413.86 328.99 451.62 317.1 451.62 317.1 413.86" class="cls-1"></polygon><path d="M384,443.5h36.6v8.12H372.07v-12.2c-.09-5.15,1.46-9.08,4.71-11.76a11.82,11.82,0,0,1,5-2.42,41.69,41.69,0,0,1,8.42-.6h9.15a16.92,16.92,0,0,0,6.63-.94,4.52,4.52,0,0,0,3-4.27,4.73,4.73,0,0,0-2.79-4.51c-1.39-.73-3.64-1.08-6.8-1.08H373V405.7h28.84q10.76,0,15,2.92a11.55,11.55,0,0,1,3.83,4.46,13.38,13.38,0,0,1,1.37,6,14.57,14.57,0,0,1-1.68,7.09,10.38,10.38,0,0,1-4.67,4.53c-2.9,1.38-7.23,2.07-13.05,2.07h-7.95a32.14,32.14,0,0,0-6.28.45,5.53,5.53,0,0,0-3.05,1.52c-.89.75-1.34,2.31-1.4,4.68Z" class="cls-1"></path><path d="M493.87,443.45v8.18H474.34a56,56,0,0,1-8.55-.48q-10.28-1.63-14.63-9.44c-2-3.48-2.88-7.79-2.88-12.93q0-9.24,4.38-15.07a17.86,17.86,0,0,1,8.5-6.09c3.53-1.3,8.09-1.92,13.74-1.92h19v8.16H476.24c-5.33,0-9.22,1.18-11.73,3.51-2,1.93-3.06,5.44-3.06,10.5,0,6.77,1.59,11.24,4.79,13.36,2.25,1.49,5.77,2.22,10.48,2.22Z" class="cls-1"></path><path d="M525.17,405.4A42.9,42.9,0,0,1,540,407.73c5,1.9,8.51,5,10.49,9.41a28.86,28.86,0,0,1,2.39,12.18,24.27,24.27,0,0,1-2.93,12.14,18.8,18.8,0,0,1-11,8.62A41.54,41.54,0,0,1,526,451.9a43,43,0,0,1-16.46-2.9,18,18,0,0,1-8.95-7.59,23.79,23.79,0,0,1-3.1-12.55q0-13.1,8-18.69c4.49-3.14,11-4.72,19.69-4.77m.08,7.73c-5.49,0-9.44,1.46-11.82,4.4-1.84,2.3-2.79,6-2.79,11,0,5.39,1.18,9.34,3.54,11.88s6,3.74,11.11,3.74c4.93,0,8.56-1.27,10.91-3.78s3.51-6.44,3.51-11.74c0-4.79-1-8.45-2.84-11C534.64,414.67,530.76,413.15,525.25,413.13Z" class="cls-1"></path><path d="M553.11,451.63l23.2-45.93H590l23.22,45.93h-14L593.82,441H572.51l-5.39,10.63Zm30.1-34.9-8,16.08h15.94Z" class="cls-1"></path><path d="M619.09,451.62v-8.18h25.59c4.07,0,6.82-.31,8.21-1a4.65,4.65,0,0,0,2.94-4.35c0-2.21-1.15-3.84-3.46-4.87a16.24,16.24,0,0,0-6.27-.88H635.72c-6.35,0-10.93-.93-13.71-2.84A13,13,0,0,1,617.9,425a12.22,12.22,0,0,1-1.45-5.79,13.05,13.05,0,0,1,3.44-8.84c2.25-2.6,5.82-4.08,10.77-4.52,1.66-.13,4.15-.19,7.49-.19h27.79v8.17H640.86a47.52,47.52,0,0,0-7.47.41,4.74,4.74,0,0,0-.62,9.11,22.43,22.43,0,0,0,7.05.78h9a40.75,40.75,0,0,1,10.3,1c4,1.1,6.68,3,8.19,5.78a15,15,0,0,1,1.76,7.15,12.8,12.8,0,0,1-2.3,7.51c-2.19,3.13-5.52,5-9.91,5.61a77.55,77.55,0,0,1-9.56.43Z" class="cls-1"></path><polygon points="689.65 413.86 671.8 413.86 671.8 405.69 720.12 405.69 720.12 413.86 701.55 413.86 701.55 451.62 689.65 451.62 689.65 413.86" class="cls-1"></polygon></svg>