<svg xmlns="http://www.w3.org/2000/svg" version="1.0" width="4167.000000" height="1251.000000" preserveAspectRatio="xMidYMid meet" style=""><rect id="backgroundrect" width="100%" height="100%" x="0" y="0" fill="none" stroke="none"/>


<g class="currentLayer" style=""><title>Layer 1</title><g transform="translate(0,1251) scale(0.10000000149011612,-0.10000000149011612) " fill="#208567" stroke="none" id="svg_1" class="selected" fill-opacity="1">
<path d="M6444 10678 c-588 -617 -1334 -1401 -1659 -1742 l-590 -618 -3 1636 -2 1636 -1720 0 -1720 0 0 -5175 0 -5175 1720 0 1720 0 0 1561 0 1561 68 -63 c37 -34 886 -856 1887 -1825 1001 -969 1823 -1764 1826 -1766 3 -2 574 584 1268 1301 l1263 1304 -24 22 c-21 21 -3166 3062 -3252 3145 l-38 38 1393 1462 c767 804 1395 1466 1397 1470 2 6 -2441 2341 -2458 2348 -3 1 -488 -503 -1076 -1120z" id="svg_2" fill="#208567"/>
<path d="M10230 8233 c0 -2029 4 -3162 10 -3283 47 -828 304 -1582 768 -2259 665 -969 1701 -1634 2863 -1836 419 -73 895 -84 1318 -30 1777 227 3248 1527 3692 3263 48 187 83 374 111 592 l22 165 3 3243 3 3242 -1685 0 -1685 0 -2 -3152 -3 -3153 -22 -77 c-62 -216 -130 -335 -278 -483 -115 -115 -201 -174 -335 -229 -274 -112 -584 -98 -850 40 -310 160 -510 452 -550 804 -6 53 -10 1231 -10 3168 l0 3082 -1685 0 -1685 0 0 -3097z" id="svg_3" fill="#208567"/>
<path d="M19620 6280 l0 -5050 1670 0 1670 0 0 2235 c0 1229 3 2235 8 2234 4 0 109 -131 234 -292 843 -1086 1739 -2232 1747 -2232 4 0 136 164 293 365 156 201 524 673 818 1050 293 377 608 781 699 898 l166 213 3 -2235 2 -2236 3292 2 3291 3 212 635 212 635 1524 3 1524 2 213 -640 214 -640 1749 0 c962 0 1749 2 1749 5 0 2 -50 147 -111 322 -61 175 -165 473 -231 663 -66 190 -153 440 -193 555 -40 116 -132 379 -203 585 -72 206 -146 420 -165 475 -20 55 -110 316 -202 580 -92 264 -202 584 -246 710 -45 127 -116 331 -159 455 -43 124 -133 383 -200 575 -68 193 -142 406 -165 475 -24 69 -75 217 -115 330 -40 113 -76 216 -80 230 -4 14 -40 115 -78 225 -39 110 -109 313 -157 450 -47 138 -104 300 -125 360 -38 109 -389 1119 -540 1555 -43 124 -129 369 -190 545 -122 349 -276 794 -319 920 l-28 80 -1940 3 c-1842 2 -1941 1 -1946 -15 -3 -10 -127 -369 -277 -798 -149 -429 -307 -881 -350 -1005 -71 -205 -604 -1738 -687 -1975 -19 -55 -145 -417 -279 -805 -135 -388 -297 -853 -361 -1035 -63 -181 -207 -595 -320 -920 -112 -324 -256 -738 -320 -920 -97 -279 -366 -1053 -581 -1674 l-57 -163 -3 4656 -2 4656 -1614 0 -1613 0 -464 -582 c-255 -321 -578 -727 -718 -903 -140 -176 -377 -473 -526 -660 -148 -187 -297 -375 -330 -417 -33 -42 -63 -76 -67 -75 -3 1 -205 252 -448 557 -243 305 -715 898 -1048 1317 l-607 763 -1612 0 -1613 0 0 -5050z m16140 -106 c160 -478 290 -872 290 -876 0 -5 -265 -8 -590 -8 -324 0 -590 2 -590 4 0 5 568 1698 582 1735 5 13 11 21 14 19 2 -3 135 -396 294 -874z" id="svg_4" fill="#208567"/>
</g></g></svg>