<svg xmlns="http://www.w3.org/2000/svg" fill="none" viewBox="0 0 108 71" height="71" width="108">
<path fill="white" d="M105.858 24.3264C105.728 24.3903 105.858 24.7095 105.858 24.9011C105.923 25.5395 106.053 26.5611 105.403 27.3273C104.883 27.902 104.038 28.2851 102.867 28.3489C102.737 28.3489 102.607 28.3489 102.477 28.3489C101.047 28.3489 99.6817 27.7104 98.6415 26.625C97.4712 25.348 96.1709 22.794 96.626 17.8777C97.2111 12.1313 99.8767 10.0881 102.152 10.0881C103.128 10.0881 104.103 10.535 104.428 11.1735C104.688 11.6205 104.623 12.0674 104.363 12.4505C104.038 12.8975 104.233 13.2806 104.298 13.4721C104.493 13.8552 104.948 14.1106 105.338 14.1106C105.728 14.1106 106.053 13.8552 106.248 13.3444C106.573 12.5782 106.443 11.812 105.988 11.1097C105.143 9.89656 102.997 9.00267 101.307 9.25807C97.2761 9.76886 94.2204 13.089 93.4402 17.75C93.3752 18.1331 93.3102 18.5162 93.3102 18.8993C93.3102 19.027 93.3102 19.1546 93.3102 19.2823C93.3102 19.5377 93.3102 19.7931 93.3102 20.0485C93.3102 20.2401 93.3752 20.4316 93.3752 20.6232C93.3752 20.8147 93.4402 21.0063 93.4402 21.1978C93.5052 21.4532 93.5052 21.7086 93.5702 21.964C93.5702 22.0279 93.6353 22.1556 93.6353 22.2194C93.5052 22.4109 93.4402 22.5386 93.1802 22.9217C92.595 23.6879 91.8798 24.4541 91.5548 24.6457C91.0997 24.9649 90.7096 24.9649 90.4495 24.6457C89.8644 24.0072 90.0594 21.9002 90.1894 21.0701C90.3195 19.9208 90.5795 18.7716 90.8396 17.8138C91.0346 17.0476 91.1647 16.3453 91.1647 16.0261C91.1647 15.7068 90.6445 14.8768 89.9944 14.2383C89.4743 13.7275 89.0192 13.4083 88.8891 13.5998C88.6291 13.9829 87.9139 16.9199 87.5238 20.1762L87.3938 20.9424C86.7436 21.7725 85.7684 22.5386 84.4681 23.241L84.338 23.3048C84.338 23.241 84.273 23.1133 84.273 22.9856C84.273 22.9856 84.273 22.9856 84.273 22.9217C84.013 21.134 84.208 18.6439 84.338 16.473C84.338 16.0899 84.4031 15.7068 84.4031 15.3876C84.4681 14.7491 84.013 13.9829 83.5579 13.5359C83.2328 13.2167 82.9727 13.089 82.8427 13.089C82.5176 13.0252 81.8024 14.9406 81.8024 14.9406C81.8024 14.9406 81.6724 13.7913 81.0222 13.089C80.5021 12.5782 79.6569 12.259 78.7467 12.259C76.4061 12.259 73.6755 14.1106 73.2854 18.1969V18.2608C72.6353 19.1547 71.465 20.6232 70.9448 20.9424C70.4897 21.2617 70.0996 21.2617 69.8396 20.9424C69.2544 20.3039 69.4495 18.1969 69.5795 17.3669C69.7096 16.2814 70.0997 14.6214 70.4247 13.2167C70.6848 12.0036 70.9448 10.982 70.9448 10.5989C70.9448 10.2797 70.4247 9.44962 69.7746 8.81113C69.2545 8.30034 68.7993 7.98109 68.6693 8.17264C68.4743 8.42804 67.9541 10.6627 67.434 13.5359L67.369 13.7913C66.1337 17.1753 65.0284 19.9847 63.9232 19.9847C63.7281 19.9847 63.5981 19.9208 63.5331 19.7931C63.078 19.2185 63.078 17.303 63.5981 14.1106C63.6631 13.5998 63.338 13.0252 62.948 12.5782C62.6229 12.1951 62.3628 12.0674 62.2328 12.0674C61.9077 12.0674 61.3226 13.7913 61.3226 13.7913C61.3226 13.7913 61.3226 11.3651 58.5919 11.3651C57.5517 11.3651 56.4464 11.812 55.6012 12.6421C54.4959 13.7275 53.9108 15.7068 53.7808 17.1753V17.303C53.2606 18.1331 51.8303 19.9208 51.1801 20.3039C50.725 20.6232 50.3349 20.6232 50.0749 20.3039C49.4897 19.6654 49.6848 17.5584 49.8148 16.7284C49.8798 16.0899 50.0749 15.2599 50.3349 13.9829V13.919H50.4C51.3102 13.7275 52.2854 13.4083 53.2606 13.0252C53.3907 12.9613 53.6507 12.6421 53.7157 12.3228C53.7808 12.1313 53.7808 12.0674 53.7808 12.0674C53.5857 12.0674 53.1956 12.1313 52.7405 12.259C52.2204 12.3228 51.5702 12.4505 50.8551 12.5782H50.66L50.725 12.3867C50.9851 11.2374 51.1801 10.3435 51.1801 10.0243C51.1801 9.70501 50.66 8.87498 50.0099 8.23649C49.4897 7.7257 49.0346 7.40645 48.9046 7.598C48.7096 7.85339 48.1894 9.96041 47.6693 12.7059V12.8336H47.4743C46.239 12.8336 45.1337 12.7059 44.2235 12.4505C43.7684 12.3228 43.3783 12.1951 42.9882 12.0674C42.013 11.7482 40.9727 11.3651 39.6074 11.1735C39.2823 11.1097 38.9572 11.1097 38.6322 11.1097C36.9418 11.1097 35.7715 11.7482 35.5764 12.8336C35.3814 13.8552 35.4464 15.2599 38.3721 15.8345C40.3226 16.2176 41.7529 17.2392 41.7529 18.1331C41.7529 18.6439 41.2978 19.2823 39.2823 19.6016C39.2823 19.6016 38.7622 19.6654 38.2421 19.6654C37.3969 19.6654 36.9418 19.4739 36.7467 19.1547C36.6167 18.8993 36.6167 18.58 36.7467 18.3246C37.0068 17.9415 37.5919 17.6861 38.2421 17.6223C37.982 17.303 37.5919 17.1115 37.1368 17.1115C36.3566 17.1115 35.4464 17.5584 35.1213 17.8777C34.7312 18.1969 33.5609 19.1547 32.0656 19.7293L31.8705 19.7931L31.9356 19.5377C32.6507 16.2815 31.3504 13.8552 28.4897 12.8336C27.9696 12.6421 27.3845 12.5144 26.7993 12.5144C24.2637 12.5144 21.8582 14.3021 20.8829 17.0476C20.8179 17.1753 20.7529 17.3669 20.6879 17.5584C20.6229 17.6861 20.6229 17.8777 20.5579 18.0692C20.5579 18.0692 20.5579 18.0692 20.5579 18.1331C20.4278 18.8993 20.3628 19.857 20.4928 20.8147C20.5579 21.0063 20.5579 21.2617 20.6229 21.4532C20.6229 21.5171 20.6229 21.5171 20.6229 21.5809C20.6879 21.7725 20.7529 21.964 20.8179 22.1555C20.8179 22.2194 20.8829 22.2833 20.8829 22.2833L20.6229 22.5386C17.7622 25.4118 15.8117 26.4334 15.0315 25.4757C14.5764 24.9649 14.6414 24.0072 14.7065 23.5602C14.9015 22.3471 15.4866 20.8786 16.0068 19.9208C20.4278 12.6421 17.4371 10.0243 16.3969 9.44962C16.0068 9.19422 15.4866 9.06653 15.0315 9.06653C13.7312 9.06653 12.3659 9.89656 11.1306 11.3651C10.6755 11.9397 9.63525 13.4082 9.63525 13.4082C9.63525 13.4082 10.2204 11.6843 10.4154 11.0458C10.9356 9.32192 10.8705 7.98109 10.3504 7.08721C9.70026 6.12948 8.52999 5.93793 7.61977 5.93793C5.40924 5.93793 2.93866 7.08721 1.96343 8.17264C-0.377131 10.5989 -0.637197 14.2383 1.24825 17.8777L1.31327 17.9415C2.15847 19.5377 3.26374 20.8786 4.62906 21.8363C4.82411 21.964 5.01915 22.0917 5.2142 22.2194C5.27922 22.2194 5.27921 22.2833 5.34423 22.2833L5.27921 22.6025C4.56404 24.8372 3.71884 27.3912 2.6786 30.0728C2.48355 30.5198 2.54857 30.7113 2.61358 30.7752C2.61358 30.7752 2.67859 30.839 2.80862 30.839C3.26373 30.839 4.23897 30.3282 5.73432 29.3705C6.64454 28.732 7.2947 26.4973 7.81482 24.1987C6.57953 23.3687 5.73432 22.5386 5.73432 22.5386C5.73432 22.5386 6.96962 23.1133 7.94485 23.4325H8.00986C8.20491 23.4964 8.46497 23.4325 8.66002 23.3048L9.24516 22.8579C9.31017 22.794 9.31017 22.7302 9.24516 22.6663C8.92008 22.5386 8.52999 22.3471 8.1399 22.1555L8.20491 21.9002V21.8363C8.46497 20.4955 8.72503 19.1547 8.9851 18.2608C10.0253 14.8768 11.8458 11.3012 13.4712 11.3012C13.9263 11.3012 14.3814 11.6205 14.7715 12.1951C15.8767 14.0467 14.6414 16.7922 13.4061 19.4101C12.821 20.687 12.2359 21.964 11.9108 23.1771C11.5207 24.518 11.6507 25.7311 12.1709 26.625C12.5609 27.2635 13.2111 27.7743 13.9913 27.9658C14.1213 28.0297 14.3164 28.0297 14.4464 28.0297C16.5919 28.0297 19.7127 24.9649 21.143 23.241C21.338 22.9856 21.338 23.0494 21.338 23.0494L21.4681 23.1771C21.9232 23.8156 22.4433 24.2626 23.1585 24.6457C23.2235 24.6457 23.2235 24.7095 23.2885 24.7095C23.4835 24.8372 23.7436 24.9011 23.9387 25.0288C24.1987 25.0926 24.4588 25.2203 24.7188 25.2203C24.9789 25.2841 25.304 25.2842 25.564 25.2842C27.7096 25.2842 29.725 24.0072 30.9603 22.0279C29.725 21.964 29.0749 20.7509 29.0749 20.7509C29.0749 20.7509 30.5702 21.3255 32.1956 20.7509C32.6507 20.5593 33.0408 20.3039 33.3659 20.0485L33.756 19.7931L33.691 20.1124C33.5609 20.687 33.756 21.1978 34.0811 21.5809C34.7312 22.3471 36.1616 22.794 37.917 22.794C40.2575 22.794 42.4681 22.0279 43.6383 20.8147C45.1987 19.2185 45.2637 17.303 43.8984 15.9622C43.2483 15.3237 41.8829 14.9406 40.7126 14.6214C39.1523 14.1744 37.852 13.8552 37.917 12.9613C37.982 12.3867 38.5021 12.0674 39.3473 12.0674C40.2575 12.0674 41.4928 12.3867 42.5981 12.8975C43.6384 13.4082 45.2637 14.0467 47.4092 14.1106H47.5393V14.2383C47.4743 14.7491 47.3442 15.2599 47.3442 15.7707C47.0192 18.3885 46.6941 20.8147 48.1244 21.7725C48.6445 22.0917 49.1647 22.2833 49.6848 22.2833C51.7003 22.2833 53.3257 19.7931 53.9108 18.7716L54.0408 18.5162L54.1058 18.8354C54.5609 20.6232 55.8613 21.7725 57.4216 21.7725C58.5919 21.7725 59.8272 21.134 60.9325 19.9208L61.1925 19.6654V19.9847C61.1925 20.4955 61.3226 21.0063 61.7127 21.3255C62.1678 21.7725 62.9479 21.964 63.7931 21.7725C65.8736 21.3255 66.7839 18.6439 66.7839 18.6439C66.7839 18.6439 66.5888 21.7086 67.9541 22.4748C68.4743 22.794 68.9944 22.9856 69.5145 22.9856C71.2699 22.9856 72.7003 21.134 73.4154 20.0485L73.6105 19.7293L73.6755 20.0485C74.0656 22.8579 75.951 23.8795 77.6414 23.8795C80.177 23.8795 81.8024 21.7725 81.8024 21.7725C81.8024 21.7725 81.8024 22.7302 81.9325 23.7518C81.9325 23.9433 81.9975 24.1349 82.0625 24.3264C82.0625 24.3264 81.9975 24.3264 81.9325 24.3903L80.6322 24.9649L80.5021 25.0288C78.8767 25.7311 77.4464 26.4334 76.2111 27.0719C74.8458 27.7743 74.2606 28.5404 74.3257 29.3705C74.5207 32.6268 81.5424 34.9253 85.2483 34.9253C85.9634 34.9253 86.5486 34.8615 86.9387 34.7338C88.434 34.223 89.2142 33.5845 89.4743 32.6906C89.8644 31.2221 88.7591 29.0512 85.7684 25.4757C85.7684 25.4757 85.7034 25.348 85.5733 25.1565C84.5981 25.5395 83.4278 25.6034 83.4278 25.6034C83.4278 25.6034 84.273 25.0288 85.4433 24.2626C86.2235 23.6879 86.8736 23.241 87.3938 22.794L87.5888 22.6025V22.9217C87.5238 24.5818 87.8489 25.6034 88.6941 26.1142C89.2142 26.4334 89.7343 26.625 90.2545 26.625C92.0099 26.625 93.5052 24.7095 94.2204 23.5602C94.2204 23.5602 94.3504 23.3048 94.4154 23.241C94.4154 23.3048 94.4805 23.3687 94.4805 23.4325L94.5455 23.4964C94.6105 23.6241 94.6755 23.7518 94.6755 23.8795C94.7405 24.071 94.8706 24.2626 94.9356 24.4541C95.0006 24.5818 95.0656 24.7095 95.1306 24.8372C95.2607 25.0926 95.4557 25.4118 95.6507 25.6672C95.7158 25.7311 95.7158 25.7949 95.7808 25.8588C95.9758 26.178 96.1709 26.4334 96.4309 26.6888C98.1213 28.6681 100.397 29.8174 102.867 29.8174H103.063C106.378 29.7536 107.549 27.8381 107.484 26.1142C106.898 25.0288 106.378 24.1349 105.858 24.3264ZM5.27921 20.687L5.2142 20.9424L5.08417 20.8147C5.01915 20.7509 5.01915 20.7509 4.95414 20.687C4.82411 20.6232 4.75909 20.5593 4.62906 20.4955C4.43401 20.3678 4.30398 20.2401 4.10893 20.1124C4.04392 20.0485 4.04392 20.0485 3.97891 19.9847C3.78386 19.7931 3.58881 19.6654 3.39376 19.4739C3.1337 19.2185 2.93866 19.027 2.80862 18.8993C2.61358 18.7077 2.41853 18.5162 2.2885 18.2608C2.2885 18.2608 2.2885 18.2608 2.2885 18.1969C2.15847 18.0054 1.96342 17.8138 1.83339 17.6223C1.83339 17.6223 1.83339 17.6223 1.76838 17.5584C0.338037 15.5791 -0.117073 12.8336 0.598097 10.6627C1.05321 9.25807 1.89841 8.30034 3.00367 7.91724C4.17395 7.53415 5.2142 7.7257 5.86436 8.55573C7.22968 10.4074 7.03463 14.4298 5.27921 20.687ZM28.2947 18.0692C28.2297 18.0692 28.2297 18.0692 28.2947 18.0692V18.1969H27.9696C27.9046 18.1969 27.8396 18.1969 27.8396 18.1969C26.9944 18.2608 26.6693 18.7716 26.5393 19.0908C26.4092 19.4739 26.8644 20.0485 27.5145 20.4955C27.4495 20.5593 27.4495 20.6232 27.3845 20.7509C26.6693 22.2194 25.7591 23.1133 24.9139 23.1133C24.5888 23.1133 24.3288 22.9856 24.1337 22.7302C23.3535 21.7725 23.5486 19.0908 24.5238 16.8561C24.9139 16.0261 25.369 15.3237 25.7591 14.8768C26.2142 14.4298 26.6693 14.1744 27.1244 14.1744C27.4495 14.1744 27.7096 14.3021 27.9046 14.5575C28.4897 15.1322 28.5548 16.4091 28.2947 18.0692ZM59.047 18.0054C58.4619 19.2823 57.6817 20.1124 57.0315 20.1124C56.7715 20.1124 56.5764 19.9847 56.3814 19.7931C55.7312 19.027 55.9263 17.0476 56.7065 15.2599C57.2916 13.9829 58.0718 13.1529 58.7219 13.1529C58.982 13.1529 59.1771 13.2806 59.3721 13.4721C59.9572 14.3021 59.8272 16.2814 59.047 18.0054ZM79.7219 19.9847C79.0068 21.5171 78.0966 22.4748 77.3164 22.4748C77.0563 22.4748 76.7962 22.3471 76.6012 22.0917C75.886 21.134 76.0161 18.7716 76.9913 16.6645C77.7065 15.1322 78.6167 14.1744 79.3969 14.1744C79.6569 14.1744 79.917 14.3021 80.112 14.5575C80.8272 15.4514 80.6972 17.8777 79.7219 19.9847ZM85.6384 33.3291C85.5083 33.6484 85.1833 33.7761 84.7281 33.7761C82.9077 33.7761 80.3071 33.0737 78.4866 31.6052C77.9015 31.1582 77.4464 30.6475 77.4464 30.009C77.5114 29.2428 78.3566 28.4766 80.6322 27.1358C80.8272 27.0081 81.0222 26.9442 81.2173 26.8165C81.4774 26.6888 81.7374 26.5611 81.9325 26.3696L82.1275 26.2419C82.2575 26.4973 82.4526 26.8165 82.5176 26.8804C84.338 29.1789 86.2235 32.1798 85.6384 33.3291Z"></path>
<path fill="white" d="M37.4619 39.4587C37.4619 39.4587 37.3969 39.331 37.3319 39.3948C37.2669 39.4587 37.2019 39.5864 37.2019 39.5864C36.7467 41.2465 36.8118 42.6511 37.5269 43.545C38.0471 44.2474 38.8923 44.6305 39.8025 44.6305C41.6879 44.6305 43.8985 43.0981 44.4186 39.7779C44.4836 39.1395 44.6136 38.501 44.7437 37.8625C44.7437 37.8625 44.0935 37.4155 43.6384 37.3517C43.8984 37.2878 44.2885 37.224 44.8087 37.224C44.8737 37.224 44.8737 37.224 44.9387 37.224C45.5888 37.1601 46.369 37.224 47.0842 37.3517C48.2545 37.5432 49.3597 38.1179 49.0997 39.6502C48.9046 40.9272 48.7746 41.7573 48.7746 41.8211L48.7096 42.268C48.2545 44.6943 49.4248 44.5028 49.4248 44.5028L49.8799 44.4389C51.3102 44.1197 54.3009 39.6502 55.7313 37.4794C55.7963 37.3517 55.9263 37.224 55.9913 37.0963C56.3164 36.6493 56.5114 36.2663 56.7065 36.0747L56.7715 36.0109H56.8365C57.4217 36.0109 58.1368 36.2024 58.1368 36.6493C58.1368 37.0324 57.8768 37.5432 57.2916 38.2456C55.9913 39.9056 55.2762 41.1188 55.1461 41.9488C55.0811 42.3319 55.2111 42.6511 55.5362 43.0342C55.7963 43.3535 56.1864 43.545 56.7065 43.545C59.3721 43.545 62.3628 39.5225 63.3381 38.054C63.4681 37.8625 63.9232 37.0963 63.9232 37.0963C63.9232 37.0963 63.9232 37.0963 63.9232 37.1601C63.9232 37.1601 63.9232 37.224 63.9232 37.3517C63.9232 37.5432 63.8582 37.9263 63.7932 38.3094C63.7282 38.6925 63.6632 39.0756 63.6632 39.3948C63.3381 42.2042 63.7282 42.9704 64.5084 43.2896C64.9635 43.4812 65.4186 43.545 65.8737 43.545C68.0842 43.4173 69.1245 40.7357 69.1245 40.7357C69.1245 40.6718 69.1245 40.5441 69.1245 40.4164C69.1245 40.3526 69.0594 40.2887 68.9944 40.3526C68.6043 40.8634 67.9542 41.6296 67.4991 41.9488C67.109 42.2042 66.7189 42.2042 66.5238 41.9488C66.0037 41.3742 66.1988 39.5225 66.2638 38.8202C66.3288 38.1179 66.5888 37.1601 66.7189 36.3939V36.3301H66.7839C67.6291 36.1386 68.2793 35.8832 68.6043 35.8193C68.6693 35.7555 68.8644 35.5639 68.9294 35.3085C68.9944 35.117 68.9944 34.9893 68.9294 34.9893C68.7344 34.9893 68.2793 35.0531 67.8241 35.117L66.9789 35.2447L67.044 35.0531C67.239 34.1592 67.4341 33.2653 67.4341 33.01C67.4341 32.7546 66.9789 31.9884 66.3938 31.4776C65.8087 30.9029 65.5486 30.7752 65.4186 30.9029C65.2235 31.2222 64.7684 33.01 64.3783 35.4362C63.9232 36.5855 62.4929 38.3733 61.6477 39.3948C61.0625 40.0333 60.0873 40.9911 59.6322 40.9911C59.5022 40.9911 59.4372 40.9272 59.3721 40.8634C59.2421 40.6718 59.3721 40.4164 59.5022 40.0972L59.5672 39.9695C60.1523 38.6925 60.6724 37.5432 61.1276 36.5855C61.2576 36.3301 61.3876 36.0747 61.5827 35.7555C61.7127 35.5001 61.7777 35.2447 61.7777 35.0531C61.7777 34.9254 61.7777 34.8616 61.7127 34.7339C61.6477 34.4785 61.4526 34.3508 61.1926 34.3508C60.9325 34.3508 60.5424 34.4785 59.8923 34.67C59.1121 34.9254 58.5269 34.9254 58.1368 34.67L58.0068 34.6062L58.0718 34.4785C58.2019 34.1592 58.3319 33.84 58.3319 33.5846C58.3319 33.3292 58.2669 33.1377 58.1368 33.01C58.0068 32.8823 57.8118 32.8184 57.5517 32.8184C56.9015 32.8184 56.4464 33.1377 56.1214 33.7761C55.9263 34.1592 55.7963 34.5423 55.7963 34.7977C55.7963 35.1808 55.9263 35.4362 56.2514 35.6916L56.3164 35.7555L56.2514 35.8193C56.2514 35.8832 55.9913 36.2024 55.6662 36.7132C54.756 38.054 53.0006 40.6718 52.1554 40.6718L51.9604 40.608C51.5703 40.4164 51.7653 39.1394 52.4805 35.8832C53.1957 32.6269 54.0409 28.1574 53.1957 27.3274C52.6755 26.8166 52.0254 26.5612 51.3752 26.5612C49.2947 26.5612 46.044 29.0513 44.5486 33.3931C44.4186 33.7761 44.0935 34.5423 43.7684 35.947C41.7529 36.2024 42.013 37.4155 42.2731 37.8625C42.4681 38.1817 42.7282 37.9902 42.7282 37.9902C42.7282 37.9902 42.9882 37.6071 43.4433 37.3517C43.3783 37.5432 43.3783 37.7348 43.3133 37.9263C43.1183 38.8841 42.9882 39.6502 42.7282 40.2887C42.013 42.0765 40.8427 43.0981 39.6074 43.0981C39.0873 43.0981 38.5672 42.9065 38.2421 42.4596C37.722 41.885 37.5919 40.9911 37.787 39.9695L37.4619 39.4587ZM48.9046 28.7321C49.6198 28.2213 50.27 28.2213 50.6601 28.6682C50.9201 28.9875 50.9851 29.626 50.7901 30.2645C50.595 30.9668 50.0099 34.4146 49.4898 37.3517C48.5796 36.1386 46.4991 35.8832 45.1988 35.947C46.174 32.3076 47.4743 29.7537 48.9046 28.7321Z"></path>
<path fill="white" d="M53.9758 0.957734C64.2483 0.957734 73.4805 5.29946 79.917 12.1951C80.4371 12.3867 80.8922 12.6421 81.2173 12.9613C81.4123 13.1529 81.6074 13.4083 81.7374 13.6637C81.8675 13.4721 81.9325 13.2806 82.0625 13.1529C75.4309 5.10792 65.2885 0 53.9758 0C43.1182 0 33.3659 4.72482 26.7343 12.1951C27.1244 12.259 27.4495 12.3228 27.8396 12.4505C34.3411 5.36331 43.6384 0.957734 53.9758 0.957734Z"></path>
<path fill="white" d="M20.8179 24.0072L19.2575 25.6034C18.3473 28.732 17.8272 32.0522 17.8272 35.5C17.8272 40.4802 18.8674 45.2689 20.8179 49.6106C21.013 49.5468 21.143 49.5468 21.338 49.5468C21.4681 49.5468 21.6631 49.4829 21.7931 49.4829C19.8427 45.205 18.8024 40.4802 18.8024 35.5639C18.8024 31.4775 19.5176 27.6466 20.8179 24.0072Z"></path>
<path fill="white" d="M87.1987 49.6107C89.0841 45.2689 90.1894 40.5441 90.1894 35.5C90.1894 32.6268 89.8643 29.8813 89.2142 27.2635C88.8241 27.1997 88.434 27.0081 88.1089 26.8166C88.369 27.7105 88.564 28.6044 88.6941 29.4982C89.5393 30.9668 89.7993 32.1161 89.5393 33.0738C89.4742 33.3292 89.4092 33.5846 89.2142 33.84C89.2142 34.4146 89.2792 34.9893 89.2792 35.5C89.2792 40.4164 88.2389 45.1412 86.2885 49.4191C86.5485 49.483 86.8736 49.5468 87.1987 49.6107Z"></path>
<path fill="white" d="M73.3504 47.6951C75.626 44.1834 76.9913 40.0333 76.9913 35.5C76.9913 34.8615 76.9263 34.2869 76.9263 33.6484C76.5362 33.4568 76.2111 33.2653 75.886 33.0737C75.951 33.9038 76.0161 34.67 76.0161 35.5C76.0161 39.9694 74.6507 44.1196 72.2452 47.5674C72.6353 47.5674 72.9603 47.6313 73.3504 47.6951Z"></path>
<path fill="white" d="M34.7962 23.1771C32.4557 26.7527 31.0253 30.9667 31.0253 35.5C31.0253 39.9694 32.3907 44.1834 34.6662 47.6951C35.0563 47.6313 35.3814 47.6313 35.7715 47.5674C33.4309 44.1196 32.0006 39.9694 32.0006 35.5C32.0006 31.0305 33.4309 26.8804 35.7715 23.3687C35.4464 23.3687 35.0563 23.241 34.7962 23.1771Z"></path>
<path fill="white" d="M26.2792 51.9731L25.564 55.0378L23.8086 52.3561L22.6384 52.6115L23.8736 59.1241L25.1089 58.8687L24.4588 55.4209L26.0842 57.7195L26.7993 55.0378L27.3845 58.4856L28.6848 58.2302L27.4495 51.7177L26.2792 51.9731Z"></path>
<path fill="white" d="M31.0904 56.634L30.9603 55.4208L32.9758 55.1654L32.7808 53.8885L30.7653 54.2077L30.5702 52.6115L32.7158 52.2922L32.5207 51.0791L29.0749 51.526L29.9851 58.1025L33.4309 57.5917L33.2359 56.3147L31.0904 56.634Z"></path>
<path fill="white" d="M37.982 54.0162C38.112 53.697 38.177 53.3139 38.112 52.9308C38.047 52.5477 37.982 52.2284 37.7869 51.9092C37.5919 51.5899 37.3968 51.3984 37.1368 51.2068C36.8767 51.0153 36.5516 50.8876 36.1616 50.8238C35.7715 50.7599 35.3814 50.6961 34.9263 50.7599C34.7312 50.7599 34.5362 50.8238 34.3411 50.8876C34.1461 50.9515 33.951 50.9515 33.821 51.0153L34.4712 57.5279L35.7715 57.4002L35.5764 55.7401C35.7064 55.7401 35.7715 55.7401 35.9015 55.6763C36.0315 55.6763 36.0965 55.6124 36.2266 55.5486L37.1368 57.2087L38.6321 57.081L37.3318 54.9101C37.6569 54.6547 37.852 54.3993 37.982 54.0162ZM36.4866 54.0162C36.2916 54.2716 35.9015 54.3993 35.4464 54.527L35.1863 52.0369H35.2513C35.4464 52.0369 35.6414 52.0369 35.8365 52.1007C36.0315 52.1646 36.1616 52.2284 36.2916 52.2923C36.4216 52.42 36.5516 52.4838 36.6167 52.6115C36.6817 52.7392 36.7467 52.8669 36.7467 53.0585C36.8117 53.4416 36.7467 53.7608 36.4866 54.0162Z"></path>
<path fill="white" d="M42.208 54.7824C42.143 54.9101 42.143 55.0378 42.078 55.1655C42.013 55.2932 41.9479 55.3571 41.8829 55.4848C41.8179 55.5486 41.6879 55.6125 41.6229 55.6125C41.3628 55.6125 41.1678 55.4848 40.9727 55.1017C40.7777 54.7824 40.6476 54.2716 40.5826 53.5693C40.5826 53.2501 40.5826 52.9947 40.5826 52.7393C40.6476 52.4839 40.6476 52.2923 40.7777 52.1008C40.8427 51.9092 40.9077 51.7815 41.0377 51.6538C41.1678 51.5261 41.2328 51.5261 41.3628 51.4623C41.4928 51.4623 41.6229 51.5261 41.7529 51.6538C41.8829 51.7815 42.013 52.0369 42.143 52.3562L43.3133 51.6538C43.0532 51.0792 42.7281 50.6961 42.338 50.5045C41.9479 50.2492 41.6229 50.1853 41.2328 50.1853C40.9077 50.1853 40.6476 50.313 40.3876 50.5045C40.1275 50.6961 39.9325 50.9515 39.7374 51.2069C39.5424 51.5261 39.4123 51.8454 39.2823 52.2923C39.2173 52.6754 39.1523 53.1223 39.2173 53.6331C39.2823 54.2078 39.3473 54.6547 39.5424 55.1017C39.7374 55.4848 39.9325 55.8679 40.1275 56.1233C40.3876 56.3787 40.6476 56.5702 40.9077 56.6979C41.1678 56.8256 41.4928 56.8894 41.7529 56.8256C42.143 56.8256 42.5331 56.634 42.8582 56.251C43.1832 55.9317 43.4433 55.4848 43.6383 54.9101L42.338 54.3355C42.273 54.4632 42.208 54.5909 42.208 54.7824Z"></path>
<path fill="white" d="M47.1492 49.9299L47.2792 52.8031L45.7189 52.8669L45.5888 49.9937L44.2885 50.0576L44.5486 56.634H45.9139L45.7839 54.2078L47.3442 54.1439L47.4093 56.5702L48.7746 56.5063L48.5145 49.866L47.1492 49.9299Z"></path>
<path fill="white" d="M53.8458 54.4632C53.7808 54.0801 53.6507 53.6331 53.5207 53.1223C53.3907 52.6754 53.3257 52.2284 53.1956 51.8453C53.0656 51.4623 53.0006 51.0792 52.9356 50.7599C52.8706 50.3768 52.7405 50.0576 52.6755 49.7383H51.1802C51.1151 50.0576 51.0501 50.3768 50.9201 50.7599C50.8551 51.0792 50.7901 51.3984 50.66 51.8453C50.595 52.2284 50.465 52.6754 50.4 53.1223C50.2699 53.6331 50.2049 54.0801 50.1399 54.4632C50.0749 54.8463 50.0099 55.2293 49.9449 55.4847C49.8798 55.804 49.8148 56.1232 49.7498 56.3786H51.1151L51.3102 55.357H52.6755L52.8706 56.3786H54.2359C54.1709 56.1232 54.1058 55.804 54.0408 55.4847C53.9758 55.1655 53.9108 54.8463 53.8458 54.4632ZM51.5052 54.2716C51.5702 53.8885 51.6353 53.5054 51.7003 53.1223C51.7653 52.8031 51.7653 52.4838 51.8303 52.2284C51.8953 51.9731 51.8953 51.7177 51.9603 51.4623C52.0254 51.7177 52.0904 51.9731 52.0904 52.2284C52.1554 52.4838 52.2204 52.7392 52.2204 53.1223C52.2854 53.4416 52.3504 53.8247 52.4154 54.2716H51.5052Z"></path>
<path fill="white" d="M58.1368 53.3777L56.4464 49.8021H55.2761L55.2111 56.3786L56.5114 56.4424L56.5764 52.8669L58.2668 56.4424H59.3721L59.5021 49.8021H58.2018L58.1368 53.3777Z"></path>
<path fill="white" d="M62.1678 49.9299L61.0625 49.866L60.8024 56.5063L62.1028 56.5702C62.5579 56.5702 62.948 56.5063 63.273 56.3786C63.6631 56.2509 63.9232 56.0594 64.1832 55.804C64.4433 55.5486 64.6384 55.2293 64.7684 54.7824C64.8984 54.3993 65.0285 53.8885 65.0285 53.3139C65.0935 52.2284 64.8334 51.3984 64.3133 50.8238C63.8582 50.2491 63.143 49.9937 62.1678 49.9299ZM63.273 54.7824C63.013 55.1016 62.6229 55.2932 62.1678 55.2932L62.3628 51.2068C62.6229 51.2068 62.8179 51.2707 63.013 51.3984C63.208 51.5261 63.338 51.6538 63.4681 51.8453C63.5981 52.0369 63.6631 52.2284 63.7281 52.4838C63.7932 52.7392 63.7932 52.9946 63.7932 53.3139C63.6631 53.9524 63.5331 54.4631 63.273 54.7824Z"></path>
<path fill="white" d="M66.3451 50.1339L65.9132 56.7609L67.2758 56.8466L67.7077 50.2196L66.3451 50.1339Z"></path>
<path fill="white" d="M70.7498 51.6538C70.9449 51.6538 71.0749 51.7176 71.1399 51.8453C71.2699 51.973 71.3349 52.1007 71.4 52.2284L72.5702 51.4622C72.3102 51.0791 72.0501 50.8237 71.725 50.6322C71.465 50.4406 71.1399 50.3768 70.8148 50.3129C70.5548 50.3129 70.2947 50.3129 70.0346 50.3768C69.7746 50.4406 69.5795 50.5683 69.3845 50.696C69.1894 50.8237 69.0594 51.0153 68.9294 51.2068C68.7993 51.3984 68.7343 51.6538 68.7343 51.9092C68.7343 52.1007 68.7343 52.2922 68.7343 52.4838C68.7993 52.6753 68.8644 52.803 68.9294 52.9946C68.9944 53.1861 69.1244 53.3138 69.3195 53.5054C69.4495 53.6969 69.6445 53.8246 69.9046 54.08C70.1647 54.3354 70.4247 54.527 70.5548 54.7185C70.6848 54.91 70.7498 55.1016 70.7498 55.2293C70.7498 55.4208 70.6848 55.5485 70.5548 55.6124C70.4247 55.7401 70.2947 55.7401 70.0997 55.7401C69.9696 55.7401 69.8396 55.6762 69.6445 55.5485C69.5145 55.4208 69.3845 55.2293 69.2544 54.9739L68.0842 55.8039C68.3442 56.187 68.6043 56.4424 68.9294 56.634C69.2544 56.8255 69.5795 56.9532 69.9696 56.9532C70.2297 56.9532 70.4897 56.9532 70.7498 56.8894C71.0099 56.8255 71.2049 56.6978 71.4 56.5063C71.595 56.3786 71.725 56.187 71.8551 55.9316C71.9851 55.7401 72.0501 55.4847 72.0501 55.2293C72.0501 55.0377 72.0501 54.8462 72.0501 54.6547C71.9851 54.4631 71.9201 54.2716 71.8551 54.1439C71.725 53.9523 71.595 53.7608 71.4 53.6331C71.2049 53.4415 71.0099 53.25 70.7498 52.9946C70.6198 52.8669 70.4897 52.7392 70.3597 52.6753C70.2947 52.6115 70.1647 52.4838 70.0997 52.4199C70.0346 52.3561 69.9696 52.2922 69.9696 52.2284C69.9696 52.1645 69.9696 52.1007 69.9696 52.0368C69.9696 51.9091 70.0346 51.7815 70.1647 51.6538C70.4897 51.6538 70.6198 51.6538 70.7498 51.6538Z"></path>
<path fill="white" d="M73.8505 50.7341L73.1162 57.3352L74.4735 57.4808L75.2078 50.8797L73.8505 50.7341Z"></path>
<path fill="white" d="M79.0718 54.974L77.9015 51.2069L76.7312 51.0154L75.821 57.5918L77.1213 57.7834L77.5764 54.2717L78.8117 58.0388L79.917 58.1665L80.8922 51.59L79.5919 51.3985L79.0718 54.974Z"></path>
<path fill="white" d="M81.8674 57.6556C81.9975 57.9748 82.2575 58.2302 82.4526 58.4218C82.7127 58.6133 82.9727 58.741 83.2978 58.8049C83.6229 58.8687 83.8829 58.8687 84.208 58.741C84.5331 58.6772 84.7931 58.4856 84.9882 58.2941C85.2483 58.1025 85.4433 57.7833 85.6383 57.464C85.8334 57.1448 85.9634 56.7617 86.0284 56.3147C86.0284 56.187 86.0935 56.0593 86.0935 55.9317C86.0935 55.804 86.0935 55.6763 86.1585 55.6124L84.013 55.2293L83.8179 56.3786L84.7281 56.5063C84.6631 56.6978 84.5981 56.8255 84.5331 57.0171C84.4681 57.1448 84.338 57.2725 84.273 57.3363C84.143 57.4002 84.078 57.464 83.9479 57.5279C83.8179 57.5917 83.7529 57.5917 83.6229 57.5279C83.4928 57.5279 83.4278 57.464 83.2978 57.3363C83.1678 57.2086 83.1027 57.0809 83.0377 56.8894C82.9727 56.6978 82.9727 56.4424 82.9077 56.187C82.9077 55.9316 82.9077 55.6124 82.9727 55.2293C83.0377 54.9739 83.1027 54.7185 83.1678 54.527C83.2328 54.2716 83.3628 54.08 83.4928 53.9523C83.6229 53.7608 83.7529 53.6969 83.8829 53.5692C84.013 53.5054 84.143 53.4415 84.273 53.5054C84.403 53.5054 84.5331 53.6331 84.5981 53.7608C84.6631 53.8885 84.7931 54.1439 84.8582 54.4631L86.1585 54.08C86.0284 53.5054 85.8334 53.1223 85.5733 52.803C85.2482 52.4838 84.9232 52.2923 84.5331 52.2284C84.208 52.1646 83.8829 52.2284 83.5579 52.2923C83.2328 52.42 82.9727 52.6115 82.7126 52.8669C82.4526 53.1223 82.1925 53.4415 81.9975 53.8246C81.8024 54.2077 81.6724 54.5908 81.6074 55.0378C81.4774 55.6124 81.4774 56.0593 81.5424 56.5063C81.6074 56.9532 81.7374 57.2725 81.8674 57.6556Z"></path>
<path fill="white" d="M53.9758 70.0423C44.9387 70.0423 36.6817 66.6583 30.4402 61.1673C30.0501 61.2311 29.595 61.295 29.2049 61.3588C35.7065 67.3606 44.4185 71 53.9758 71C63.5331 71 72.2452 67.2968 78.7467 61.3588C78.3566 61.295 77.9015 61.2311 77.5114 61.1673C71.2699 66.6583 63.078 70.0423 53.9758 70.0423Z"></path>
<path fill="white" d="M86.9386 20.8785C86.2235 19.41 85.4433 17.9415 84.5981 16.6006C84.5331 17.0476 84.5331 17.6861 84.468 18.1969C85.1182 19.2823 85.7033 20.4316 86.2235 21.5809C86.5485 21.3255 86.7436 21.1339 86.9386 20.8785Z"></path>
<path fill="white" d="M102.933 57.7194L94.5455 55.4847L95.0006 53.5054C95.1956 52.6753 94.6755 51.8453 93.8303 51.6537C82.2576 48.8444 68.4743 47.3759 54.0408 47.3759C39.6074 47.3759 25.8241 48.8444 14.2514 51.6537C13.4062 51.8453 12.886 52.6753 13.0811 53.5054L13.5362 55.5485L5.1492 57.7194C4.82412 57.7832 4.56406 58.0386 4.49905 58.294C4.36901 58.6133 4.43403 58.9325 4.62908 59.1879L8.13992 63.785L6.83961 69.276C6.77459 69.5953 6.8396 69.9145 7.09967 70.1699C7.29471 70.3615 7.48976 70.4253 7.74982 70.4253C7.81484 70.4253 7.94487 70.4253 8.00988 70.3615C14.8365 68.3822 21.143 67.0413 26.8644 66.5305C27.1895 66.5305 27.4495 66.339 27.6446 66.0836C27.8396 65.8282 27.9046 65.509 27.8396 65.1897L27.7746 64.9982L26.9944 61.2311C35.0563 59.9541 44.4186 59.1879 54.1059 59.1879C63.7282 59.1879 73.0904 59.8903 81.2173 61.2311L80.3721 65.2536V65.3174C80.3071 65.5728 80.3721 65.892 80.5672 66.0836C80.7622 66.339 81.0223 66.4667 81.3474 66.5305C87.7839 67.4883 94.1554 68.7652 100.267 70.3615C100.332 70.3615 100.462 70.4253 100.527 70.4253C100.787 70.4253 100.982 70.3615 101.177 70.1699C101.437 69.9145 101.502 69.5953 101.437 69.276L100.072 63.785L103.583 59.1879C103.778 58.9325 103.843 58.6133 103.713 58.294C103.518 57.9748 103.258 57.7832 102.933 57.7194ZM7.68481 69.4037L8.98512 63.9127C9.05013 63.6573 8.98512 63.3381 8.79007 63.1465L5.27923 58.6133L13.6012 56.4424L15.0966 63.2742C15.0966 63.3381 15.0966 63.3381 15.1616 63.4019C15.1616 63.4019 15.1616 63.4019 15.1616 63.4658C15.2266 63.5296 15.2266 63.5296 15.2916 63.5935C15.3566 63.5935 15.3566 63.6573 15.4216 63.6573L24.4588 65.7643C19.3876 66.4028 13.7312 67.616 7.68481 69.4037ZM26.7343 65.1897V65.2536H26.6693L17.5672 63.1465C17.5672 63.1465 17.5672 63.1465 17.6322 63.1465C18.0223 63.0188 18.4124 62.955 18.8025 62.8911C19.0625 62.8273 19.3226 62.7634 19.5826 62.6996C20.1678 62.5719 20.7529 62.4442 21.3381 62.3165C21.4031 62.3165 21.5331 62.2527 21.5981 62.2527C22.2483 62.125 22.8984 61.9973 23.5486 61.8696C23.6136 61.8696 23.6786 61.8696 23.7436 61.8057C24.2638 61.678 24.7839 61.6142 25.369 61.4865C25.5641 61.4226 25.7591 61.4226 26.0192 61.3588L26.4093 63.2104L26.7343 65.1897ZM53.9758 58.2302C44.2885 58.2302 34.8613 58.9325 26.7343 60.2733C26.6043 60.2733 26.4093 60.3372 26.2792 60.3372C26.1492 60.3372 25.9542 60.401 25.8241 60.401C25.369 60.4649 24.8489 60.5926 24.3938 60.6564C24.1987 60.7203 24.0037 60.7203 23.8086 60.7841C23.2885 60.9118 22.7034 60.9757 22.1833 61.1034C22.0532 61.1034 21.9232 61.1672 21.7281 61.1672C21.208 61.2949 20.6879 61.4226 20.1678 61.4865C19.9727 61.5503 19.8427 61.5503 19.6477 61.6142C19.0625 61.7419 18.4774 61.8696 17.9573 61.9973H17.8922C17.3071 62.125 16.787 62.2527 16.2669 62.4442C16.2018 62.4442 16.1368 62.5081 16.0718 62.5081L14.7065 56.187L14.5764 55.7401L14.4464 55.2931L13.9913 53.25C13.9263 52.9307 14.1213 52.6115 14.4464 52.5476C25.9542 49.8021 39.6074 48.3336 54.0408 48.3336C68.4743 48.3336 82.1275 49.8021 93.6353 52.5476C93.9604 52.6115 94.1554 52.9307 94.0904 53.25L93.7003 55.1654L93.5703 55.6124L93.4402 56.0593L92.0099 62.5081C91.9449 62.5081 91.8799 62.5081 91.8148 62.4442C91.2947 62.3165 90.7096 62.125 90.1895 61.9973H90.1244C89.5393 61.8696 89.0192 61.7419 88.434 61.6142C88.239 61.5503 88.109 61.5503 87.9139 61.4865C87.3938 61.3588 86.8737 61.2311 86.2885 61.1672C86.1585 61.1672 86.0285 61.1034 85.8984 61.1034C85.3783 60.9757 84.7932 60.9118 84.273 60.7841C84.078 60.7203 83.883 60.7203 83.6879 60.6564C83.2328 60.5926 82.7777 60.4649 82.3226 60.401C82.1926 60.401 81.9975 60.3372 81.8675 60.3372H81.8025C81.6724 60.3372 81.5424 60.2733 81.3474 60.2733C73.1554 58.9325 63.7282 58.2302 53.9758 58.2302ZM81.2173 65.3174L82.0625 61.3588C82.2576 61.4226 82.4526 61.4226 82.6477 61.4865C83.1678 61.5503 83.7529 61.678 84.273 61.8057C84.3381 61.8057 84.4031 61.8057 84.4681 61.8696C85.1183 61.9973 85.7684 62.125 86.4186 62.2527C86.5486 62.2527 86.6136 62.3165 86.7436 62.3165C87.3288 62.4442 87.9139 62.5719 88.434 62.6996C88.7591 62.7634 89.0192 62.8273 89.2792 62.8911C89.6693 62.955 89.9944 63.0827 90.3195 63.1465C90.3195 63.1465 90.3195 63.1465 90.3845 63.1465L81.2173 65.3174ZM99.1616 63.2104C98.9666 63.4658 98.9015 63.7212 98.9666 63.9766L100.332 69.4676C94.7405 67.9991 88.8892 66.7859 83.0378 65.892L92.4 63.6573C92.465 63.6573 92.465 63.6573 92.53 63.5935C92.595 63.5935 92.595 63.5296 92.6601 63.4658C92.6601 63.4658 92.6601 63.4658 92.6601 63.4019C92.6601 63.3381 92.7251 63.3381 92.7251 63.2742L94.2204 56.3786L102.542 58.6133L99.1616 63.2104Z"></path>
<path fill="white" d="M90.1894 12.5782C90.9696 12.8336 91.8798 12.3228 92.2049 11.4928C92.335 11.0458 92.4 10.5989 92.2049 10.2158C92.0749 9.83269 91.7498 9.51345 91.4247 9.38575C91.2947 9.3219 91.1647 9.3219 90.9696 9.3219C90.3195 9.3219 89.6693 9.83269 89.4093 10.535C89.0842 11.3651 89.4743 12.2589 90.1894 12.5782Z"></path>
</svg>
